<svg width="47" height="50" viewBox="0 0 47 50" fill="none" xmlns="http://www.w3.org/2000/svg">
<g opacity="0.6">
<path d="M32.7698 0.05036L32.7807 0.0516875C32.9821 0.0241416 33.1782 0.0128577 33.3729 0.00688384C33.4705 0.00256941 33.5671 0.00223753 33.6636 0.000246258C33.7602 -0.00074938 33.8557 0.00157377 33.9517 0.00190565C34.3343 0.00821136 34.7106 0.0334342 35.0839 0.0666221C35.8297 0.137644 36.5621 0.248492 37.287 0.394187C38.0119 0.53955 38.7298 0.716773 39.4451 0.93349C39.8026 1.04434 40.1598 1.16216 40.5162 1.29823C40.6052 1.3344 40.6948 1.36659 40.7838 1.40343C40.8727 1.4406 40.9624 1.47611 41.0513 1.5166C41.2296 1.59426 41.4081 1.67524 41.5857 1.77447L41.5999 1.78244C41.6191 1.79306 41.6261 1.81728 41.6155 1.83653C41.6075 1.8508 41.5923 1.85811 41.5771 1.85678L41.0172 1.80301C40.8311 1.78277 40.6442 1.76452 40.458 1.74228C40.0857 1.69681 39.714 1.64703 39.3429 1.5926C39.1574 1.56506 38.9719 1.53851 38.7871 1.50665C38.6022 1.47611 38.417 1.44591 38.2325 1.41272C38.0476 1.3802 37.8631 1.34801 37.6789 1.31283C37.4944 1.27864 37.3102 1.24446 37.1263 1.20762C36.9424 1.17045 36.7586 1.13328 36.5754 1.09346C36.3918 1.05429 36.2086 1.01546 36.0258 0.97398C35.8429 0.932827 35.6597 0.892669 35.4771 0.849525C35.2946 0.807044 35.1117 0.764564 34.9302 0.718101C34.5661 0.62783 34.2033 0.53424 33.8409 0.437995L33.2992 0.28699L32.7588 0.132002L32.7698 0.13333C32.7476 0.132998 32.7301 0.114745 32.7307 0.0925087C32.7307 0.0762466 32.741 0.0623077 32.7552 0.0563338L32.7698 0.05036Z" fill="#6C9CA3"/>
<path d="M28.3832 1.14255C28.7314 1.1691 29.0694 1.22353 29.405 1.28427C29.489 1.2992 29.572 1.31712 29.656 1.33172L29.9064 1.38084C30.0727 1.41536 30.2384 1.45087 30.4031 1.49003C31.0618 1.64635 31.7176 1.80498 32.3545 2.03498C32.5136 2.09272 32.6716 2.15512 32.8287 2.22083L33.3023 2.41232C33.6181 2.54076 33.9362 2.66322 34.2623 2.75515C34.9127 2.94499 35.5827 3.05617 36.26 3.11889C36.5986 3.14943 36.9363 3.18361 37.2732 3.21647C37.3572 3.22543 37.4412 3.23439 37.5252 3.24501C37.6092 3.25463 37.6925 3.26592 37.7762 3.27753L38.0265 3.31205L38.2775 3.34324C38.6119 3.38407 38.9459 3.42854 39.2799 3.46637C39.4469 3.48628 39.6135 3.50719 39.7799 3.53142L39.9046 3.54967L40.0296 3.56627C40.1126 3.57821 40.1959 3.58917 40.2789 3.60244C40.4449 3.62733 40.6109 3.65455 40.7766 3.68342C40.9426 3.7103 41.1086 3.73619 41.2743 3.76539C41.4403 3.79228 41.606 3.82546 41.772 3.85301C41.938 3.88155 42.1043 3.9091 42.2703 3.94063C42.6024 4.00534 42.9357 4.06043 43.269 4.13046C43.4357 4.16697 43.603 4.19684 43.7704 4.23334C43.9377 4.26886 44.1054 4.30768 44.2733 4.35182H44.2743C44.2968 4.35813 44.3104 4.38103 44.3044 4.4036C44.3001 4.42019 44.2866 4.43181 44.2707 4.43446C43.5875 4.54797 42.8996 4.59211 42.2138 4.59343C42.0422 4.59443 41.8709 4.59144 41.6992 4.58945C41.5279 4.5848 41.357 4.57617 41.1857 4.56655C41.0147 4.55726 40.8434 4.54763 40.6728 4.53369C40.5024 4.5181 40.3321 4.50051 40.1622 4.48093C39.8216 4.44475 39.4842 4.388 39.1479 4.32494C38.811 4.2662 38.4776 4.18788 38.1433 4.11553C37.8089 4.04484 37.4769 3.96286 37.1472 3.8716C37.0646 3.84936 36.9825 3.82447 36.9005 3.80124C36.8185 3.77601 36.7372 3.74913 36.6555 3.72291C36.4921 3.67081 36.3298 3.61605 36.1671 3.56262L35.923 3.48396C35.8417 3.45708 35.7606 3.42953 35.6796 3.40365C35.5169 3.35121 35.3539 3.30176 35.1902 3.25629C34.8615 3.16868 34.5338 3.07907 34.2001 3.01369C34.1168 2.99676 34.0331 2.98183 33.9491 2.96756L33.8228 2.94731C33.7808 2.94001 33.7388 2.93238 33.6968 2.92607C33.5285 2.89919 33.3588 2.87596 33.1885 2.85439C33.0185 2.83248 32.8479 2.81124 32.6782 2.78768C32.5086 2.76279 32.3399 2.73425 32.1723 2.70139C32.0043 2.66953 31.8379 2.6317 31.6729 2.58988C31.5079 2.5474 31.3455 2.49562 31.1828 2.44485C30.8581 2.3413 30.5347 2.23311 30.2172 2.10766C29.5803 1.8624 28.955 1.58163 28.3591 1.22088C28.3389 1.2086 28.3326 1.18271 28.3445 1.16247C28.3531 1.1482 28.3686 1.14089 28.3839 1.14189H28.3848L28.3832 1.14255Z" fill="#6C9CA3"/>
<path d="M24.1168 2.04405C24.5765 2.12802 25.0246 2.23953 25.4697 2.35735L26.1357 2.53756C26.3569 2.59895 26.5778 2.66135 26.7974 2.72739C27.018 2.79078 27.2353 2.8628 27.4552 2.92718C27.6741 2.99389 27.8937 3.05927 28.1113 3.12996C28.3295 3.19866 28.5474 3.26869 28.7631 3.34535C28.9787 3.42168 29.1953 3.49536 29.4092 3.578C30.2644 3.90855 31.1057 4.29618 31.9824 4.56965C32.2016 4.63702 32.4222 4.70075 32.6441 4.75882C32.7549 4.78869 32.8656 4.81757 32.9771 4.84478L33.1441 4.88627C33.2 4.89921 33.2562 4.91049 33.3124 4.92277C33.7612 5.01869 34.2139 5.09834 34.6676 5.16969C35.123 5.23374 35.5773 5.2978 36.0294 5.36849C36.1428 5.38442 36.2559 5.40035 36.369 5.41827C36.4821 5.43519 36.5949 5.45312 36.7076 5.47203C36.9332 5.50788 37.1577 5.55002 37.3836 5.58288L38.0612 5.68078L38.3995 5.7309L38.5684 5.75645L38.7378 5.77869C38.964 5.80723 39.1892 5.83975 39.4147 5.87195C39.5275 5.88755 39.6399 5.9058 39.7523 5.92272C39.8644 5.94197 39.9779 5.95359 40.0903 5.97052C40.541 6.03158 40.9901 6.11322 41.4412 6.17163C41.6667 6.20283 41.8919 6.23801 42.1175 6.27186C42.343 6.30638 42.5692 6.33094 42.7954 6.36446C42.9085 6.38039 43.0216 6.39565 43.1347 6.41291C43.2478 6.42984 43.3612 6.44709 43.4746 6.46004C43.7015 6.48825 43.9283 6.51778 44.1558 6.54964C44.2696 6.56557 44.3834 6.58316 44.4975 6.59777C44.6115 6.61104 44.7256 6.62531 44.8397 6.63992C45.0682 6.67045 45.2971 6.70164 45.5269 6.74014H45.5282C45.551 6.74413 45.5663 6.7657 45.5626 6.7886C45.5596 6.80685 45.5451 6.82046 45.5279 6.82311C45.2984 6.85862 45.0679 6.8865 44.8367 6.91405C44.7213 6.92732 44.6056 6.93993 44.4898 6.95155C44.3741 6.96317 44.2584 6.96748 44.1426 6.97578C43.9111 6.98972 43.679 7.00133 43.4468 7.01129C43.3304 7.01793 43.2147 7.01726 43.0986 7.01793C42.9825 7.01925 42.8665 7.01793 42.7504 7.01793C42.6343 7.01793 42.5183 7.01726 42.4022 7.01593L42.2279 7.01394C42.1697 7.01394 42.1118 7.01228 42.054 7.00897C41.8225 6.99768 41.5907 6.98739 41.3588 6.97312C41.2431 6.96615 41.127 6.96051 41.0113 6.95255C40.8955 6.94524 40.7805 6.93164 40.6647 6.92135C40.4339 6.90011 40.2031 6.87522 39.9726 6.849L39.8 6.82875C39.7424 6.82212 39.6849 6.81515 39.6277 6.80585C39.5132 6.78793 39.3985 6.77134 39.2841 6.75209C39.0552 6.71459 38.8267 6.67709 38.5985 6.63593L38.4276 6.6054L38.2576 6.56989L37.9176 6.4982L37.2384 6.35284C36.787 6.24963 36.3373 6.14077 35.8905 6.02096C35.6673 5.95956 35.4467 5.88887 35.2255 5.82017C35.0042 5.75181 34.784 5.68078 34.5634 5.61109C34.3428 5.54206 34.1249 5.46374 33.9047 5.39437C33.6848 5.32368 33.4645 5.25598 33.2433 5.19226C32.8012 5.06249 32.36 4.9314 31.9113 4.82653C31.6867 4.77475 31.4628 4.72033 31.2376 4.67121C31.0121 4.62209 30.7856 4.57662 30.5581 4.53315L30.2171 4.4671C30.1037 4.44453 29.9909 4.41898 29.8775 4.39508C29.6513 4.3463 29.4261 4.29386 29.2019 4.23711C29.0898 4.2089 28.978 4.18003 28.8669 4.14883C28.7555 4.1183 28.644 4.0881 28.5346 4.05192C28.3146 3.98256 28.0967 3.90656 27.8791 3.82923C27.6612 3.75356 27.4446 3.67325 27.228 3.59393C27.1195 3.55477 27.013 3.50996 26.9056 3.46748C26.7984 3.425 26.6913 3.38119 26.5848 3.33639C25.7299 2.98692 24.8926 2.59132 24.0877 2.12072C24.0679 2.1091 24.0609 2.08321 24.0725 2.0633C24.0818 2.0477 24.0993 2.04007 24.1162 2.04306H24.1171L24.1168 2.04405Z" fill="#6C9CA3"/>
<path d="M46.1626 9.17861C45.4271 9.2868 44.6844 9.33758 43.9413 9.35981C43.1976 9.38271 42.4535 9.3628 41.7111 9.31966C40.9684 9.27817 40.2283 9.20217 39.4912 9.10559C39.307 9.08004 39.1228 9.05647 38.9389 9.02926C38.7554 9.00006 38.5718 8.97151 38.389 8.93866L38.1145 8.89054C38.0232 8.87394 37.9323 8.85403 37.8413 8.83611C37.6591 8.79993 37.4776 8.76143 37.296 8.72227C36.9342 8.63764 36.5725 8.55434 36.2143 8.45577L35.677 8.31041C35.498 8.26096 35.3201 8.20852 35.1416 8.15775C34.7847 8.05719 34.4299 7.949 34.0738 7.84777C33.8955 7.79766 33.7183 7.74423 33.5407 7.69278L33.0066 7.54244C32.2956 7.33966 31.5813 7.14983 30.868 6.95568L28.7218 6.38717C28.0059 6.197 27.2916 5.99821 26.5829 5.78116C26.4056 5.7274 26.2294 5.67031 26.0531 5.61323C25.8765 5.55681 25.7006 5.49906 25.525 5.44065L24.4744 5.07824C23.0765 4.58673 21.688 4.06534 20.3281 3.4756C19.9895 3.32525 19.6496 3.17856 19.3126 3.02391C18.9763 2.86859 18.64 2.71327 18.3053 2.55463C17.6446 2.241 16.9789 1.93833 16.3059 1.64993C15.6323 1.36385 14.9527 1.08905 14.2646 0.832509L14.0063 0.736264L13.7473 0.642011C13.661 0.609818 13.5744 0.579286 13.4878 0.548753C13.4008 0.518552 13.3145 0.487023 13.2272 0.457486C12.8796 0.335686 12.5291 0.220192 12.1782 0.102375L12.1871 0.103371L12.1855 0.102707L12.1699 0.0980607C12.1488 0.091755 12.1369 0.0691872 12.1432 0.047947C12.1488 0.0293617 12.1666 0.0177459 12.1852 0.0197372H12.1868L12.1914 0.020401L12.1957 0.0210647C12.5641 0.0668641 12.9309 0.125275 13.2966 0.192646C13.661 0.263337 14.0265 0.33635 14.3879 0.424298C15.1125 0.595216 15.8281 0.803968 16.5361 1.03628C17.2434 1.27125 17.9425 1.53211 18.631 1.81753C18.972 1.95559 19.3116 2.0973 19.6512 2.23868C19.9925 2.37608 20.3315 2.51879 20.6711 2.65917C22.0306 3.21938 23.3828 3.79685 24.7482 4.34412L25.7743 4.74868C26.1179 4.87944 26.4595 5.01585 26.8018 5.15092L27.3157 5.35237C27.4867 5.42041 27.6573 5.4901 27.8293 5.55581L28.3442 5.75627L28.6014 5.85683L28.8597 5.95473C29.205 6.08317 29.5492 6.21592 29.8974 6.33606L30.4196 6.5176C30.5949 6.57435 30.7695 6.63276 30.9454 6.68752C31.6475 6.91154 32.3575 7.10901 33.0731 7.28325C34.5056 7.63039 35.9709 7.82354 37.421 8.04159C37.7845 8.09071 38.1459 8.15244 38.5084 8.20487C38.6896 8.23076 38.8698 8.26295 39.051 8.2905C39.2322 8.31672 39.4128 8.34625 39.5937 8.37413C40.3179 8.48166 41.0425 8.58753 41.7693 8.67548C42.4962 8.76475 43.2244 8.84839 43.9555 8.91476C44.6867 8.98379 45.4202 9.03855 46.1593 9.09497C46.1821 9.09663 46.1993 9.11688 46.1976 9.13978C46.196 9.15969 46.1811 9.17529 46.1622 9.17794L46.1626 9.17861Z" fill="#6C9CA3"/>
<path d="M3.63302 2.03278C4.53416 1.80843 5.4601 1.67833 6.391 1.61494C6.85695 1.5781 7.32388 1.57578 7.79149 1.57346L8.49256 1.59403C8.60962 1.59536 8.72603 1.60664 8.84243 1.61494L9.1923 1.64116C10.1239 1.72015 11.0534 1.84825 11.9668 2.04904L12.3104 2.11973C12.4242 2.14694 12.5376 2.17449 12.6507 2.20303L12.9906 2.28832C13.1037 2.31687 13.2175 2.34408 13.3299 2.3766C13.5538 2.44298 13.7777 2.50902 14.0009 2.57839L14.1682 2.62983C14.2238 2.64742 14.28 2.66302 14.3349 2.68326L14.6649 2.79975C14.7751 2.83825 14.8849 2.87774 14.9943 2.91757C15.1038 2.95772 15.2142 2.99556 15.3227 3.03771C15.5386 3.12565 15.7552 3.21161 15.9705 3.30089L16.2936 3.43364L16.6124 3.57635L17.249 3.86176L18.505 4.46246C18.921 4.66159 19.3363 4.86271 19.7583 5.04856C21.4422 5.80126 23.1691 6.45639 24.9244 7.01959C25.8007 7.30501 26.682 7.57283 27.5617 7.84199C28.443 8.10616 29.3206 8.37864 30.2052 8.62655L30.5366 8.7208L30.8689 8.81141L31.5336 8.99162C31.9777 9.10678 32.4215 9.22427 32.867 9.33379C33.3114 9.44662 33.7579 9.55183 34.203 9.66035C34.4265 9.71047 34.6491 9.76456 34.8723 9.81634C35.0949 9.87077 35.3194 9.9159 35.5426 9.96801C39.1167 10.7758 42.7402 11.3616 46.4333 11.4495C46.4562 11.4502 46.4743 11.4691 46.4737 11.492C46.4733 11.5129 46.4575 11.5298 46.4376 11.5322C45.5183 11.653 44.5897 11.7067 43.6608 11.7207C42.7316 11.7336 41.801 11.6994 40.8737 11.6304C39.9461 11.5614 39.0212 11.4571 38.1009 11.3234C37.871 11.2882 37.6409 11.2557 37.4114 11.2185L36.7242 11.1007C36.495 11.0615 36.2672 11.0167 36.039 10.9726C35.9249 10.95 35.8105 10.9291 35.697 10.9052L35.3558 10.8339C34.9004 10.74 34.4487 10.6324 33.9963 10.5259C33.5462 10.4114 33.0951 10.3005 32.6484 10.1741C32.1996 10.0546 31.7552 9.92022 31.3097 9.79078L30.6444 9.58635L30.312 9.48346L29.981 9.37693C29.0967 9.09649 28.2194 8.79614 27.3503 8.47422L26.7005 8.2273C26.4839 8.14499 26.2696 8.05705 26.0544 7.97175C25.8394 7.88547 25.6238 7.80117 25.4098 7.71189L24.7683 7.44506C24.34 7.2695 23.9161 7.08298 23.4888 6.90576L22.8506 6.63362L22.5308 6.49954L22.2117 6.36347L20.9339 5.82549L20.294 5.55932C20.0814 5.46872 19.8674 5.38177 19.6538 5.29349C19.547 5.24902 19.4398 5.20621 19.3327 5.16306L19.0122 5.03097L18.3687 4.77211C18.1534 4.68615 17.9391 4.60584 17.7239 4.52453L17.4014 4.40306L17.2401 4.34299C17.1865 4.32274 17.1326 4.30283 17.078 4.28491L16.4259 4.06354L16.1005 3.9527L15.7718 3.85214C15.5525 3.78576 15.3346 3.71607 15.116 3.64836C14.8971 3.58265 14.6759 3.52391 14.4573 3.45853L14.1286 3.36228C14.0191 3.32976 13.9083 3.30288 13.7982 3.27268C13.5776 3.21493 13.358 3.15386 13.1381 3.0928L12.4751 2.92719L12.1441 2.84289L11.8107 2.76888L11.4774 2.69488L11.3107 2.65771L11.2274 2.63879L11.1437 2.62253L10.4731 2.49442L10.3054 2.46223L10.1371 2.43535L9.80012 2.38158L9.46281 2.32749C9.35037 2.3099 9.23728 2.29795 9.12451 2.28268L8.78588 2.23954C8.67278 2.22626 8.56002 2.20768 8.44659 2.19905L7.76635 2.13367C7.70947 2.12703 7.65292 2.12338 7.59605 2.12039L7.42541 2.10977L7.0838 2.0882C6.85595 2.06829 6.62811 2.06796 6.3996 2.05933C5.48589 2.03079 4.56888 2.05368 3.64624 2.11442C3.62343 2.11608 3.60358 2.09849 3.60226 2.07559C3.60094 2.05501 3.6145 2.03709 3.63368 2.03244L3.63302 2.03278Z" fill="#6C9CA3"/>
<path d="M46.4939 13.8924C45.5345 14.0321 44.5633 14.0918 43.5923 14.1051C42.6211 14.1171 41.6489 14.0766 40.6806 13.9959C39.712 13.9156 38.7477 13.7925 37.7893 13.6362C36.8303 13.4825 35.8783 13.289 34.9374 13.0524C33.9966 12.8158 33.0677 12.5347 32.1437 12.2449C31.2208 11.9509 30.3034 11.6442 29.3838 11.3485C27.5471 10.7481 25.7088 10.1567 23.8734 9.5431C22.9554 9.23743 22.042 8.91618 21.1359 8.57633L20.4584 8.31547L20.1201 8.18339L19.7837 8.04698L19.1114 7.77318L18.4421 7.49241C17.9944 7.30158 17.5532 7.12569 17.1107 6.94515L16.7794 6.80974L16.4441 6.68562L15.7738 6.43637L15.6064 6.37398C15.5505 6.35374 15.4937 6.33582 15.4371 6.3169L15.0985 6.2034L14.4222 5.9744C14.194 5.90703 13.9672 5.83601 13.7397 5.76697L13.3987 5.66243L13.3134 5.63655L13.2274 5.61365L13.0555 5.56685L12.3679 5.37967C12.3104 5.36474 12.2535 5.34715 12.1957 5.3342L12.0224 5.29371L11.6758 5.21174L11.3292 5.12943L11.156 5.08861L10.9813 5.05476L10.2829 4.91604C10.2247 4.90475 10.1665 4.89214 10.108 4.88185L9.93239 4.85431L9.58086 4.79855C9.3464 4.76204 9.11227 4.71857 8.87615 4.69567L8.1688 4.61038C8.10993 4.60208 8.05074 4.59976 7.99155 4.59445L7.81396 4.58084L7.4588 4.5523L7.28088 4.53803C7.22169 4.53404 7.1625 4.52641 7.10297 4.52575L6.74682 4.51214L6.39033 4.49787L6.21175 4.49057H6.03351L5.31888 4.49156C5.08078 4.49754 4.84268 4.51181 4.60392 4.52044C3.6502 4.57121 2.69747 4.68306 1.74607 4.848L1.7378 4.84933H1.73582C1.713 4.84767 1.6958 4.82742 1.69779 4.80453C1.69944 4.78362 1.71598 4.76769 1.73582 4.76636L1.72557 4.76769C3.56621 4.15869 5.52755 3.87626 7.48426 3.89717C7.72897 3.90148 7.97402 3.90248 8.21873 3.9121L8.95188 3.9589C9.19692 3.97084 9.43932 4.0037 9.68304 4.02959L10.0481 4.07074L10.2307 4.09198C10.2912 4.10028 10.3517 4.11057 10.4122 4.11986L11.1378 4.23535L11.319 4.26489L11.4989 4.3014L11.8587 4.37541L12.2185 4.44941L12.3984 4.48725C12.4582 4.49986 12.5171 4.51679 12.5766 4.53106L13.2883 4.71193L13.4662 4.75707L13.5548 4.7803L13.6428 4.80652L13.994 4.91272C14.2278 4.98407 14.4626 5.05343 14.6957 5.12645L15.3875 5.36872L15.7327 5.49118C15.79 5.51209 15.8482 5.53167 15.905 5.55358L16.075 5.62128L16.7549 5.89276L17.0942 6.02982L17.4285 6.17784C17.874 6.37564 18.3224 6.57278 18.7563 6.77423L19.4124 7.07458L20.0708 7.36929L21.3883 7.95837L22.7081 8.54414C23.1499 8.73563 23.5897 8.93211 24.0338 9.11829C24.2557 9.21155 24.4769 9.30746 24.6998 9.3984C24.9224 9.49033 25.1456 9.5806 25.3692 9.67054C25.592 9.76214 25.8176 9.8461 26.0421 9.93339L26.3798 10.0615L26.5487 10.1255L26.7187 10.1869C27.1718 10.3506 27.6255 10.5125 28.0835 10.6612C28.312 10.7375 28.5405 10.8129 28.771 10.8829C29.0008 10.9552 29.2317 11.0233 29.4621 11.093C30.3871 11.3618 31.3216 11.5964 32.2615 11.8029C33.2016 12.0096 34.1454 12.1918 35.0866 12.377C36.0287 12.5582 36.9695 12.7378 37.912 12.9087C38.3836 12.993 38.8555 13.0716 39.3284 13.1463L40.0384 13.2548C40.2755 13.2867 40.5126 13.3199 40.7497 13.3541C41.6988 13.4802 42.6512 13.5841 43.6072 13.6611C44.5636 13.739 45.5229 13.7848 46.4889 13.8101C46.5117 13.8107 46.5299 13.8296 46.5292 13.8525C46.5289 13.8731 46.5134 13.8897 46.4939 13.8927V13.8924Z" fill="#6C9CA3"/>
<path d="M0.752524 7.36703C1.67317 7.00263 2.6345 6.73281 3.61401 6.55061L3.79788 6.51709C3.85906 6.5058 3.92057 6.49485 3.98208 6.48589L4.35179 6.42881C4.47514 6.41089 4.59915 6.39728 4.72283 6.38135C4.78467 6.37405 4.84651 6.36542 4.90868 6.35911L5.09486 6.34053L5.28104 6.32261C5.34321 6.3163 5.40538 6.31099 5.46755 6.30734L5.84123 6.28145C5.96591 6.27349 6.09058 6.26951 6.21525 6.26453L6.40242 6.25723L6.58959 6.25424C6.7146 6.25291 6.83927 6.24926 6.96427 6.24959L7.33894 6.2549C7.46395 6.25524 7.58862 6.26254 7.71362 6.26652C7.83829 6.27216 7.96363 6.27382 8.08797 6.28378L8.46198 6.309C8.58665 6.31763 8.71066 6.3309 8.83533 6.34152C9.08468 6.36077 9.3317 6.39529 9.58006 6.42383C10.5708 6.55028 11.5513 6.75106 12.5107 7.01889C13.47 7.28838 14.4069 7.62789 15.3265 7.99827C16.2458 8.37063 17.1496 8.7742 18.0461 9.18838C19.8329 10.0114 21.6666 10.7316 23.529 11.3615C24.4603 11.6765 25.3951 11.9785 26.3303 12.2755C27.2665 12.5692 28.1998 12.8703 29.1402 13.1444C30.0801 13.4208 31.0239 13.683 31.9713 13.927L32.3265 14.0195L32.6823 14.1085C32.9194 14.1676 33.1559 14.231 33.394 14.286C33.6321 14.3421 33.8688 14.4022 34.1063 14.46C34.3444 14.5154 34.5828 14.5688 34.8202 14.6262C38.6272 15.5097 42.495 16.1422 46.4342 16.1758C46.457 16.1758 46.4755 16.1947 46.4752 16.2176C46.4752 16.2385 46.4593 16.2558 46.4395 16.2584C45.4603 16.3935 44.4702 16.4545 43.4794 16.4698C42.4884 16.4838 41.4963 16.4472 40.5072 16.3712C40.2601 16.3503 40.0128 16.3324 39.7661 16.3072C39.5197 16.2813 39.2727 16.2571 39.0263 16.2292L38.2882 16.1366C38.0425 16.1041 37.7975 16.0659 37.5521 16.0307C37.4294 16.0135 37.307 15.9936 37.1847 15.9737L36.8176 15.9133C36.5729 15.8738 36.3292 15.828 36.0855 15.7832L35.7197 15.7161C35.5977 15.6935 35.477 15.667 35.3553 15.6424L34.9912 15.5674C34.8698 15.5429 34.7485 15.5177 34.6278 15.4901C33.6592 15.28 32.6988 15.0341 31.7461 14.7653C30.7924 14.4988 29.8483 14.2011 28.9088 13.8924C27.9686 13.5851 27.036 13.2566 26.1121 12.9051L25.4213 12.6363C25.1914 12.546 24.9636 12.4504 24.7344 12.3575C24.2761 12.1736 23.8227 11.9768 23.368 11.7847C22.4609 11.3944 21.5571 10.9988 20.6533 10.6045C19.7479 10.2139 18.8464 9.8163 17.9387 9.43198C17.0365 9.04501 16.1119 8.71313 15.1754 8.42871C14.2392 8.1423 13.2921 7.90401 12.3433 7.68895L11.9868 7.61262C11.8681 7.58707 11.7497 7.55919 11.6304 7.53662C11.3919 7.49016 11.1548 7.43838 10.9157 7.39624C10.4392 7.30397 9.96068 7.22665 9.48151 7.15363C8.52184 7.01856 7.55588 6.9263 6.58662 6.89842L6.40474 6.89211L6.22285 6.89012C6.10182 6.88979 5.98046 6.88614 5.85909 6.88614L5.49533 6.88912C5.37396 6.88879 5.25293 6.89643 5.13157 6.89842C4.64644 6.91302 4.16065 6.94156 3.67618 6.98935C3.19172 7.03582 2.70692 7.09456 2.22411 7.17321C1.7413 7.25087 1.25915 7.34214 0.776995 7.44469C0.754508 7.44967 0.732682 7.43507 0.727722 7.41283C0.723423 7.39259 0.734666 7.37267 0.753185 7.36537L0.752524 7.36703Z" fill="#6C9CA3"/>
<path d="M0.270916 9.84027C1.19223 9.45695 2.15686 9.16954 3.141 8.96975C3.26402 8.94519 3.38737 8.9203 3.51105 8.8984L3.88275 8.83567C3.94459 8.82439 4.00676 8.81609 4.06926 8.8078L4.2561 8.78224L4.44294 8.75669L4.63045 8.73545C5.13013 8.6767 5.63311 8.64385 6.1361 8.62725L6.51375 8.61763L6.8914 8.61896L7.08022 8.62028L7.26905 8.62559C7.39471 8.62991 7.52104 8.63157 7.6467 8.63787C7.89803 8.65347 8.14969 8.66442 8.40035 8.68766C8.52569 8.69861 8.65135 8.70691 8.77668 8.72118L9.15202 8.76332C10.1527 8.87683 11.1421 9.07396 12.1117 9.33482C12.2334 9.36502 12.3535 9.40252 12.4742 9.43737L12.8353 9.54357L13.1934 9.65873C13.3128 9.6969 13.4322 9.73473 13.5502 9.77755C13.7864 9.86118 14.0238 9.94083 14.2576 10.0308L14.6091 10.1622C14.7259 10.2067 14.8419 10.2541 14.958 10.2999C15.8873 10.6696 16.8 11.0715 17.7057 11.4847C17.9333 11.5863 18.1571 11.6905 18.3843 11.7901C18.6108 11.8903 18.8367 11.9928 19.0652 12.0888C19.2934 12.1857 19.5216 12.2819 19.7507 12.3768C19.8652 12.424 19.9793 12.4731 20.0943 12.5189L20.4399 12.6563C20.6701 12.7482 20.9012 12.8371 21.132 12.9274L21.8288 13.1863L22.1777 13.3144L22.5282 13.4375L23.2296 13.6828C24.1685 13.9994 25.1086 14.31 26.0518 14.6077C26.2869 14.6844 26.5227 14.7581 26.7585 14.8324L27.4652 15.0561L28.1732 15.2751L28.3501 15.3299L28.5277 15.3827L28.8828 15.4882C29.3554 15.6316 29.8316 15.762 30.3058 15.8977C30.782 16.0272 31.2576 16.1579 31.7351 16.2807C32.6898 16.528 33.6455 16.7686 34.6058 16.9883C34.8452 17.0467 35.086 17.0985 35.3261 17.1522L35.6865 17.2329L36.0476 17.3102C36.5288 17.4154 37.0119 17.5093 37.4948 17.6056L38.2206 17.7413L38.9482 17.8674C39.1909 17.9083 39.4343 17.9458 39.6773 17.9849C39.7987 18.0052 39.9207 18.0221 40.0424 18.0393L40.4078 18.0928C41.3831 18.2298 42.3626 18.3404 43.3464 18.418C44.3302 18.497 45.318 18.5382 46.3107 18.5468C46.3335 18.5468 46.3521 18.5657 46.3521 18.5886C46.3521 18.6095 46.3362 18.6268 46.3163 18.6294C45.3295 18.7665 44.3315 18.8286 43.3332 18.8442C42.3345 18.8584 41.3344 18.8213 40.3377 18.7443C38.3437 18.5919 36.3645 18.2763 34.4124 17.8525C34.2903 17.8259 34.1686 17.7984 34.0469 17.7705C33.9253 17.7423 33.8032 17.7161 33.6819 17.6862C33.4395 17.6268 33.1964 17.5697 32.9543 17.5087C32.7123 17.4479 32.4715 17.3822 32.2301 17.3192C31.9884 17.2571 31.7486 17.1874 31.5089 17.1194C31.0277 16.9863 30.5515 16.8386 30.0737 16.6949C29.5985 16.5439 29.1223 16.3962 28.6497 16.2366C28.1758 16.0819 27.7052 15.9183 27.2347 15.7547C26.9995 15.6727 26.7657 15.5861 26.5319 15.5008L26.1814 15.372L25.8325 15.2383L25.1361 14.9678L24.4443 14.6857L24.0987 14.5443L23.7548 14.3986L23.0676 14.1069C22.6112 13.9081 22.1539 13.713 21.6995 13.5112L20.3334 12.9138C19.8771 12.7177 19.424 12.5139 18.967 12.3191C18.5123 12.1203 18.0563 11.9205 17.5993 11.7297C16.6885 11.344 15.755 11.0138 14.8095 10.7324C13.8644 10.4499 12.909 10.2126 11.9503 10.0072L11.5906 9.9322C11.4708 9.90565 11.3508 9.88275 11.2304 9.85952L10.8703 9.78916L10.5092 9.72412C10.2688 9.67931 10.0274 9.64214 9.78629 9.60099L9.42385 9.54656C9.30315 9.52864 9.18244 9.50906 9.06108 9.49512L8.69765 9.44899C8.57661 9.43405 8.45492 9.42277 8.33355 9.40883C8.09115 9.37962 7.84743 9.36303 7.60437 9.34146C7.11759 9.30661 6.62982 9.2794 6.14139 9.27276C5.65328 9.26679 5.16386 9.26844 4.67542 9.29433C4.18699 9.31756 3.69789 9.35241 3.21045 9.40916C2.72301 9.46458 2.23557 9.53129 1.75044 9.61924C1.26531 9.70619 0.781176 9.80709 0.297372 9.91926C0.275215 9.92457 0.252728 9.91063 0.247767 9.88806C0.243138 9.86782 0.254051 9.84791 0.272239 9.84027H0.270916Z" fill="#6C9CA3"/>
<path d="M0.0677716 12.2267C0.988422 11.8414 1.95239 11.5516 2.93654 11.3498C3.05955 11.325 3.1829 11.3001 3.30625 11.2775L3.67795 11.2141C3.73979 11.2028 3.80196 11.1942 3.86446 11.1856L4.0513 11.1597L4.23815 11.1338C4.30065 11.1255 4.36315 11.1192 4.42565 11.1119C4.92533 11.0518 5.42831 11.0186 5.93163 11.0007L6.30928 10.9904C6.43527 10.9894 6.56094 10.9908 6.68693 10.9908L6.87576 10.9914L7.06458 10.9967C7.19058 11.0007 7.31657 11.0027 7.44223 11.0083C7.69356 11.0239 7.94555 11.0339 8.19621 11.0571C8.32155 11.0677 8.44754 11.0764 8.57255 11.0897L8.94788 11.1311C9.07321 11.1437 9.19789 11.161 9.32256 11.1779C9.44723 11.1949 9.57223 11.2108 9.69657 11.23L10.0689 11.2918L10.2551 11.3226L10.4403 11.3591L10.8103 11.4325C10.9334 11.458 11.0554 11.4882 11.1781 11.5158C11.3004 11.5447 11.4235 11.5705 11.5448 11.6031L11.9092 11.6983C12.0309 11.7285 12.1513 11.765 12.2717 11.8002L12.6331 11.9057L12.9913 12.0209C13.1107 12.0597 13.2304 12.0962 13.3481 12.1391L13.7029 12.2632L13.8798 12.3256L14.0558 12.3913L14.4073 12.5227C14.5247 12.5659 14.6401 12.6143 14.7565 12.6598C15.6861 13.0285 16.5995 13.4297 17.5059 13.8423C17.7337 13.9438 17.9576 14.048 18.1848 14.1476C18.4113 14.2481 18.6375 14.35 18.8657 14.4466C19.0939 14.5435 19.3221 14.6401 19.5512 14.7347L19.8948 14.8771L20.2404 15.0145C20.4706 15.1067 20.702 15.1953 20.9325 15.2859L21.6293 15.5451L21.9782 15.6732C22.0946 15.7157 22.212 15.7555 22.3287 15.7967L23.0301 16.0423C23.969 16.3599 24.9091 16.6702 25.8523 16.9686L26.2054 17.0824L26.5593 17.1936L27.266 17.4176L27.974 17.6366C28.2094 17.7113 28.4469 17.779 28.6833 17.85C29.1559 17.9934 29.6321 18.1245 30.1066 18.2602C30.5828 18.3893 31.0587 18.5208 31.5362 18.6439C32.4909 18.8918 33.447 19.1327 34.4073 19.3528C34.6467 19.4115 34.8875 19.4633 35.1276 19.5171L35.488 19.598L35.8491 19.6757C36.3303 19.7812 36.8134 19.8755 37.2966 19.9721L38.0224 20.1081L38.75 20.2346C38.9927 20.2757 39.2361 20.3132 39.4791 20.3527C39.6005 20.373 39.7225 20.3902 39.8442 20.4075L40.2096 20.4609C41.1852 20.599 42.1647 20.7102 43.1485 20.7888C44.1323 20.8688 45.1204 20.911 46.1135 20.9209C46.1363 20.9209 46.1549 20.9398 46.1545 20.9627C46.1545 20.9836 46.1387 21.0009 46.1188 21.0035C45.1317 21.1393 44.1337 21.2004 43.1346 21.215C42.1356 21.2282 41.1356 21.1901 40.1386 21.1124C38.1441 20.9584 36.1646 20.6418 34.2125 20.2167C34.0905 20.1901 33.9688 20.1626 33.8471 20.1347C33.7254 20.1065 33.6034 20.0806 33.482 20.0501C33.2396 19.9907 32.9966 19.9336 32.7545 19.8722C32.2714 19.7461 31.7879 19.6219 31.3087 19.4819C30.8275 19.3488 30.3514 19.2004 29.8735 19.0567C29.3983 18.9054 28.9221 18.7574 28.4495 18.5978C27.9756 18.4428 27.5051 18.2788 27.0342 18.1152C26.799 18.0329 26.5652 17.9466 26.3314 17.8607L25.9806 17.7319L25.6317 17.5978L24.9353 17.327L24.2434 17.0449L23.8979 16.9032L23.5539 16.7575L22.8668 16.4654C22.4104 16.267 21.9531 16.0708 21.4984 15.8694L20.1323 15.2713C19.6756 15.0752 19.2229 14.8708 18.7658 14.6763L18.083 14.3782C17.8558 14.2787 17.6259 14.1818 17.3981 14.0865C16.4867 13.7015 15.5528 13.372 14.607 13.0919C13.6613 12.8104 12.7056 12.5738 11.7465 12.3704C11.5065 12.3213 11.267 12.2685 11.0266 12.2237L10.6662 12.154L10.305 12.0893L10.1245 12.0567L9.9436 12.0269L9.58182 11.9671L9.21938 11.9134C9.09868 11.8951 8.97764 11.8765 8.85661 11.8626L8.49318 11.8168L8.12908 11.7776C7.88636 11.7488 7.64296 11.7328 7.39957 11.7113C6.91246 11.6774 6.42469 11.6515 5.93593 11.6456C5.44749 11.6409 4.9584 11.6429 4.46963 11.6701C4.40845 11.6728 4.34727 11.6748 4.2861 11.6784L4.10289 11.6907C3.98087 11.6996 3.85851 11.7053 3.73648 11.7169L3.37008 11.7488C3.24805 11.7604 3.12635 11.776 3.00433 11.7883C2.51689 11.8447 2.02944 11.9127 1.54465 12.0017C1.05952 12.0896 0.575717 12.1915 0.0919122 12.305C0.0697557 12.3103 0.0472686 12.2964 0.0419775 12.2741C0.0373478 12.2539 0.04793 12.234 0.0664488 12.2263L0.0677716 12.2267Z" fill="#6C9CA3"/>
<path d="M0.0248721 14.5609C0.943538 14.1833 1.90453 13.9008 2.88471 13.7054C3.0074 13.6815 3.13008 13.6569 3.2531 13.6353L3.62315 13.5743C3.68466 13.5633 3.74683 13.555 3.80867 13.5471L3.99452 13.5222L4.1807 13.4973L4.36721 13.4767C4.8649 13.4196 5.36524 13.3884 5.86624 13.3731L6.24224 13.3645L6.61824 13.3665L6.8064 13.3682L6.99424 13.3738C7.11957 13.3781 7.2449 13.3801 7.3699 13.3871C7.61991 13.403 7.87057 13.4146 8.11992 13.4382C8.24459 13.4491 8.36992 13.4581 8.49426 13.472L8.86761 13.5145C9.86333 13.629 10.8478 13.8268 11.8128 14.0873C11.9341 14.1176 12.0532 14.1547 12.1732 14.1896L12.5324 14.2958L12.8888 14.4109C13.0076 14.4491 13.1266 14.4869 13.2437 14.5294C13.4788 14.613 13.7149 14.6924 13.9474 14.782L14.2969 14.9131C14.4133 14.9572 14.5284 15.0047 14.6442 15.0501C15.5688 15.4185 16.4769 15.8191 17.3787 16.2303C17.6052 16.3315 17.8281 16.4351 18.0543 16.5343C18.2798 16.6342 18.5047 16.7361 18.7319 16.8317C18.9587 16.9282 19.1862 17.0241 19.4141 17.1184C19.5282 17.1655 19.6413 17.214 19.756 17.2598L20.0999 17.3965C20.3288 17.4881 20.5593 17.5767 20.7888 17.6667L21.4822 17.9245L21.8295 18.052L22.1787 18.1744L22.8768 18.4187C23.8113 18.734 24.7468 19.043 25.6854 19.34C25.9192 19.4167 26.1543 19.4897 26.3887 19.5637L27.0921 19.7864L27.7965 20.0048C27.9136 20.0416 28.0313 20.0771 28.1494 20.112L28.5025 20.2172C28.738 20.2875 28.9734 20.3579 29.2099 20.4242L29.9186 20.6257L30.6292 20.8195L30.8068 20.868L30.9847 20.9148L31.3409 21.0084C32.291 21.2549 33.2417 21.4962 34.1974 21.7156C38.0143 22.6113 41.893 23.2539 45.8444 23.3016C45.8672 23.3016 45.8858 23.3206 45.8854 23.3438C45.8854 23.3647 45.8696 23.382 45.8494 23.3846C44.8666 23.516 43.8732 23.5738 42.8794 23.5861C41.8854 23.5967 40.8903 23.5572 39.8986 23.4782C37.9141 23.3219 35.9451 23.0043 34.0026 22.5801C33.0314 22.3671 32.0684 22.1198 31.1134 21.847C30.6348 21.7139 30.1606 21.5669 29.6854 21.4229L28.9761 21.1972C28.7393 21.1229 28.5042 21.0442 28.2687 20.9659L27.9156 20.8484C27.7978 20.8096 27.6801 20.7701 27.5634 20.7289L26.8606 20.485C26.6265 20.4037 26.394 20.3171 26.1612 20.2318L25.8123 20.1033L25.4651 19.9702L24.7723 19.7004L24.0841 19.4193L23.7402 19.2786L23.3979 19.1336L22.7141 18.8428L22.0328 18.5471L21.6922 18.3995L21.3526 18.2498L19.9931 17.6547C19.5388 17.4596 19.088 17.2565 18.6333 17.0626C18.1806 16.8648 17.7269 16.6657 17.2719 16.4759C16.3651 16.0919 15.4362 15.7633 14.4954 15.4832C13.5545 15.2018 12.6038 14.9652 11.6501 14.7601L11.2919 14.6851C11.1729 14.6585 11.0532 14.6359 10.9338 14.6127L10.5753 14.5424L10.2162 14.4773C9.97709 14.4322 9.73667 14.395 9.49692 14.3538L9.13647 14.2991C9.01643 14.2808 8.89605 14.2616 8.77568 14.2473L8.41423 14.2009C8.29353 14.1859 8.17283 14.1743 8.05212 14.1604C7.81072 14.1308 7.56832 14.1136 7.32625 14.0917C6.84179 14.0558 6.35633 14.0279 5.87021 14.0196C5.38409 14.0123 4.89731 14.0123 4.41086 14.0366L4.22832 14.0435L4.0461 14.0548C3.92474 14.0631 3.80271 14.0684 3.68135 14.0787L3.31659 14.1083C3.1949 14.1189 3.07387 14.1338 2.9525 14.1454C2.46704 14.1985 1.98158 14.2632 1.49844 14.3485C1.01497 14.4328 0.532817 14.5311 0.0506661 14.6403C0.028179 14.6452 0.00602254 14.6313 0.00106214 14.6091C-0.00356757 14.5888 0.00734531 14.5689 0.0258641 14.5613L0.0248721 14.5609Z" fill="#6C9CA3"/>
<path d="M0.0723999 16.8673C0.987098 16.5029 1.94313 16.2328 2.91636 16.0489C3.03806 16.0264 3.16008 16.0031 3.28211 15.9832L3.64951 15.9258C3.7722 15.9062 3.89522 15.8939 4.01823 15.8774L4.20309 15.8541L4.38828 15.8355C4.882 15.7834 5.37838 15.7562 5.87508 15.7453L6.24777 15.7393L6.62046 15.7443C6.68263 15.7456 6.7448 15.7453 6.80697 15.7476L6.99315 15.7546C7.11716 15.7599 7.2415 15.7622 7.36551 15.7705C7.6132 15.7874 7.86155 15.801 8.10891 15.8259C8.23259 15.8379 8.3566 15.8465 8.47995 15.8621L8.85 15.9062C9.83612 16.0267 10.8113 16.2262 11.7667 16.489C11.8864 16.5205 12.0048 16.5574 12.1235 16.5922C12.2419 16.6281 12.3613 16.6616 12.479 16.6991L12.8319 16.8142L13.0081 16.8717L13.1831 16.9334C13.4162 17.016 13.6493 17.097 13.8798 17.1863L14.2264 17.317L14.57 17.4544C15.4854 17.8225 16.3852 18.2214 17.2784 18.631C17.5023 18.7315 17.7235 18.8344 17.9477 18.9326C18.1716 19.0312 18.3938 19.1334 18.6197 19.227C18.8445 19.3229 19.0701 19.4178 19.2959 19.5114C19.5211 19.607 19.749 19.696 19.9762 19.7862C20.8836 20.1513 21.8062 20.4782 22.7295 20.7981C23.6558 21.1111 24.5844 21.4151 25.5143 21.7108C26.4445 22.0055 27.3725 22.3055 28.3073 22.5806L28.6575 22.6852L29.0087 22.7857C29.2432 22.8521 29.4767 22.9205 29.7115 22.9855L30.4158 23.1787C30.6506 23.2431 30.8864 23.3031 31.1215 23.3662L31.4744 23.4595L31.8282 23.5487L32.1817 23.6393L32.3583 23.6845L32.5356 23.7276C32.772 23.784 33.0075 23.8444 33.2436 23.9029C33.48 23.9593 33.7172 24.0127 33.9533 24.0705C37.7367 24.9632 41.5797 25.6104 45.4971 25.6854C45.5199 25.6857 45.5381 25.7046 45.5378 25.7279C45.5375 25.7488 45.5216 25.7657 45.5017 25.7683C44.5265 25.8928 43.5414 25.9452 42.5563 25.9532C41.5708 25.9598 40.5843 25.917 39.6012 25.8364C38.618 25.7554 37.6379 25.6373 36.664 25.4836C36.1768 25.4069 35.6904 25.3246 35.2066 25.2314L34.8432 25.1633C34.7221 25.1401 34.6018 25.1135 34.4811 25.0887L34.1193 25.013L33.9384 24.9752L33.7582 24.9347C32.7955 24.7226 31.8415 24.4753 30.8944 24.2049C30.6579 24.1362 30.4205 24.0711 30.1853 23.9984L29.4793 23.783C29.2442 23.7107 29.0104 23.6337 28.7759 23.559L28.4247 23.4462L28.0749 23.3294C27.1406 23.0214 26.2134 22.6935 25.2957 22.3414L24.6089 22.0732C24.3807 21.9819 24.1538 21.8874 23.9263 21.7944L23.5854 21.6547L23.2461 21.511L22.5681 21.2226L21.8925 20.9292C21.6677 20.8313 21.4421 20.7341 21.2179 20.6345L19.87 20.0444L19.1957 19.7507C18.9715 19.6518 18.7467 19.5542 18.5215 19.4573C18.072 19.2622 17.623 19.0647 17.1712 18.8759C16.2731 18.4939 15.3524 18.1663 14.4199 17.8865C13.488 17.6051 12.5455 17.3688 11.6007 17.1607C11.1275 17.0602 10.6553 16.9589 10.18 16.874C9.94294 16.8285 9.70517 16.7894 9.4674 16.7479C9.40821 16.7369 9.34835 16.729 9.28883 16.7193L9.11025 16.6914C8.9912 16.6735 8.87215 16.6523 8.75277 16.6377L8.3943 16.5896C8.33477 16.5809 8.27459 16.5746 8.21506 16.5677L8.0355 16.5467C7.79641 16.5162 7.55632 16.4966 7.31624 16.4741C6.83607 16.4349 6.35491 16.403 5.87309 16.3918C5.39127 16.3801 4.90846 16.3765 4.42598 16.3957C3.9435 16.412 3.46035 16.4405 2.97886 16.4893C2.49704 16.5368 2.01489 16.5955 1.53506 16.6749C1.05489 16.7528 0.575715 16.8444 0.0962098 16.947C0.0737227 16.952 0.0518969 16.9374 0.0469365 16.9151C0.0426375 16.8949 0.053881 16.875 0.0720692 16.8677L0.0723999 16.8673Z" fill="#6C9CA3"/>
<path d="M0.200086 19.1539C1.10916 18.8077 2.05693 18.5548 3.0209 18.3856C3.1416 18.365 3.26198 18.3431 3.38301 18.3255L3.74677 18.2731C3.86814 18.2558 3.98983 18.2445 4.11186 18.2299L4.29473 18.2093L4.47794 18.1931C4.96637 18.1479 5.45679 18.1254 5.94754 18.1204L6.3156 18.1184L6.68366 18.1264C6.80635 18.128 6.92904 18.1347 7.05139 18.1403L7.23526 18.1486C7.29644 18.1509 7.35794 18.1543 7.41912 18.1596L7.78619 18.1868C7.90855 18.1947 8.03058 18.2093 8.1526 18.2203C8.39731 18.2412 8.64004 18.2751 8.88377 18.3053C9.85666 18.433 10.8187 18.6351 11.7608 18.9003C12.7029 19.1671 13.6223 19.5033 14.5254 19.8681C15.4282 20.2355 16.3158 20.6321 17.1971 21.0386C18.9524 21.8481 20.7533 22.5563 22.5831 23.1762C23.4978 23.4869 24.4161 23.7836 25.3344 24.0773L26.7124 24.5137L27.4019 24.7291L28.0934 24.9372C29.9387 25.4871 31.8008 25.9693 33.6686 26.4154C35.5373 26.8571 37.4183 27.2477 39.3175 27.5348C40.2669 27.6789 41.2206 27.7987 42.1786 27.8896C43.1367 27.9819 44.0986 28.0399 45.0663 28.0711C45.0891 28.0718 45.1073 28.091 45.1066 28.1139C45.1059 28.1349 45.0901 28.1518 45.0699 28.1541C44.1056 28.2686 43.1324 28.3134 42.1588 28.3157C41.1852 28.3164 40.2113 28.2696 39.2404 28.186C38.998 28.1634 38.7553 28.1422 38.5129 28.1163L37.7867 28.0333L37.0625 27.9364C36.9414 27.9211 36.8214 27.9012 36.701 27.883L36.3399 27.8272C36.2195 27.8089 36.0992 27.79 35.9791 27.7691L35.619 27.7071L35.2592 27.6433L34.9004 27.575C34.6613 27.5292 34.4216 27.4854 34.1841 27.4326C33.946 27.3815 33.7076 27.333 33.4702 27.2793C31.5697 26.8535 29.7012 26.3012 27.8583 25.6856C26.9357 25.3809 26.0203 25.055 25.1135 24.7079L24.4356 24.442C24.2098 24.3531 23.9862 24.2582 23.7613 24.1669C23.3116 23.985 22.8665 23.7909 22.42 23.6011C21.5295 23.2161 20.6422 22.8255 19.755 22.4375C18.8661 22.0528 17.9805 21.6616 17.0886 21.2842C16.202 20.9052 15.2933 20.5796 14.3729 20.3005C13.453 20.0194 12.5227 19.7841 11.5908 19.572C11.1239 19.4708 10.6576 19.3679 10.189 19.281C9.72108 19.1894 9.25116 19.1101 8.78059 19.037C8.5448 19.0039 8.30902 18.9693 8.0729 18.9418C7.95485 18.9279 7.83679 18.9106 7.7184 18.8997L7.36324 18.8635C6.88935 18.8193 6.41415 18.7842 5.93828 18.7672C5.46241 18.75 4.98555 18.7413 4.50869 18.754C4.03183 18.7636 3.55431 18.7858 3.07778 18.8273C2.60125 18.8671 2.12406 18.9186 1.64885 18.9889C1.17332 19.0586 0.698441 19.1409 0.223234 19.2342C0.200747 19.2385 0.178921 19.2239 0.174622 19.2013C0.170654 19.1811 0.181898 19.1615 0.200747 19.1545L0.200086 19.1539Z" fill="#6C9CA3"/>
<path d="M0.406732 21.4243C1.30787 21.1007 2.24473 20.8684 3.1958 20.7181L3.37437 20.6902C3.4339 20.6809 3.49342 20.6719 3.55328 20.6646L3.91175 20.6185C4.03146 20.6042 4.1515 20.594 4.27155 20.5817C4.3314 20.576 4.39159 20.5691 4.45177 20.5644L4.632 20.5508C4.87242 20.5306 5.11349 20.5216 5.3549 20.5103C5.4756 20.5057 5.5963 20.504 5.71668 20.5017L5.8979 20.4987L6.07879 20.4997C6.19949 20.5007 6.32019 20.4997 6.44089 20.5027L6.803 20.5146C6.92371 20.5173 7.04408 20.5266 7.16478 20.5326C7.28515 20.5402 7.40619 20.5442 7.52623 20.5558L7.88702 20.5863C8.00739 20.5969 8.1271 20.6112 8.24714 20.6235C8.48756 20.6461 8.72632 20.6832 8.96574 20.7141C9.92144 20.8505 10.8669 21.0549 11.7918 21.3238C12.7168 21.5932 13.6196 21.9288 14.5068 22.2925C14.6183 22.337 14.7284 22.3844 14.8385 22.4316L15.1692 22.572L15.827 22.8597L16.4804 23.1554C16.6974 23.255 16.9143 23.3565 17.1312 23.4544C18.8591 24.2499 20.6313 24.9472 22.4329 25.5539C23.3324 25.8609 24.2378 26.1489 25.1406 26.44L25.8189 26.6547L26.1575 26.7629L26.4968 26.8691L27.1754 27.0812L27.8556 27.287C28.0818 27.357 28.3103 27.42 28.5375 27.4868C28.765 27.5528 28.9922 27.6192 29.2204 27.6816L29.9046 27.8717L30.5901 28.0556C31.5051 28.2955 32.4212 28.5305 33.3405 28.7509C35.1785 29.191 37.0284 29.5809 38.8958 29.8766C39.8293 30.024 40.7672 30.1491 41.7093 30.247C42.6515 30.3466 43.5976 30.4139 44.5497 30.4574C44.5725 30.4584 44.5903 30.4776 44.5894 30.5009C44.5884 30.5218 44.5725 30.5384 44.5523 30.5404C43.6022 30.6426 42.6442 30.6781 41.6862 30.6731C40.7282 30.6665 39.7702 30.6147 38.8154 30.5274C37.8604 30.4408 36.9093 30.3154 35.9632 30.1614C35.7264 30.1245 35.4903 30.0834 35.2545 30.0406L34.9007 29.9768L34.5478 29.9085C34.0766 29.8205 33.6093 29.7157 33.1411 29.6141C32.2072 29.4004 31.2796 29.1598 30.3603 28.8936L29.6718 28.6908L28.9862 28.4784C28.7574 28.4087 28.5302 28.3337 28.303 28.2597C28.0758 28.185 27.8477 28.1133 27.6218 28.0353C26.7144 27.733 25.8136 27.4127 24.9214 27.0706C24.4766 26.896 24.0318 26.7218 23.5913 26.5366C23.3707 26.445 23.1495 26.355 22.9299 26.2608L22.2715 25.9784C22.0516 25.8858 21.8333 25.7889 21.6148 25.6933L20.959 25.4069L19.6488 24.833L18.3376 24.2632C17.8994 24.076 17.4639 23.8829 17.0241 23.6993C16.8052 23.6061 16.5849 23.5188 16.3657 23.4282C16.1448 23.3419 15.9229 23.2583 15.701 23.175C15.4774 23.0963 15.2545 23.0157 15.03 22.9407L14.6924 22.8305C14.5796 22.794 14.4672 22.7575 14.3537 22.724C13.4493 22.4442 12.5343 22.2092 11.6189 21.9938C11.5045 21.9673 11.3894 21.9427 11.2746 21.9168C11.1599 21.8916 11.0458 21.8627 10.9307 21.8402C10.7006 21.793 10.4717 21.7406 10.2412 21.6971C9.78156 21.6025 9.31958 21.5219 8.85727 21.4442C7.931 21.2999 6.99877 21.1937 6.06225 21.1459L5.88665 21.1359L5.71105 21.1299L5.35953 21.118L5.00767 21.1123C4.89027 21.109 4.77321 21.1133 4.65548 21.1123C4.1859 21.114 3.71565 21.1286 3.24607 21.1605C2.77615 21.191 2.3059 21.2332 1.83698 21.2929C1.36773 21.352 0.898804 21.4233 0.429219 21.505C0.406732 21.5089 0.385237 21.4937 0.381269 21.4711C0.377631 21.4509 0.389536 21.4316 0.408055 21.4246L0.406732 21.4243Z" fill="#6C9CA3"/>
<path d="M0.691467 23.684C1.58236 23.3889 2.50565 23.1868 3.43986 23.0524L4.14324 22.9665C4.37837 22.9475 4.61415 22.9326 4.85027 22.9157C5.08638 22.8948 5.3225 22.8958 5.55894 22.8901L5.91378 22.8842C5.97297 22.8842 6.03217 22.8812 6.09136 22.8832L6.26861 22.8885C6.50506 22.8951 6.7415 22.9027 6.97828 22.912C7.03747 22.913 7.09634 22.9187 7.1552 22.9233L7.33212 22.9373L7.68596 22.9658L8.03981 22.996C8.1572 23.0096 8.27427 23.0255 8.39166 23.0405C8.62646 23.07 8.86092 23.1022 9.09538 23.1341C9.32819 23.1755 9.56133 23.215 9.7938 23.2582L10.1427 23.3226C10.2581 23.3478 10.3732 23.375 10.4879 23.4022C10.7181 23.4563 10.9479 23.5101 11.1771 23.5672C11.4053 23.6279 11.6311 23.6973 11.8573 23.7636C11.9704 23.7968 12.0835 23.8307 12.1963 23.8652C12.3097 23.8977 12.4205 23.9379 12.5323 23.976C12.7548 24.0547 12.9774 24.1317 13.199 24.2117C13.4218 24.2877 13.6391 24.3789 13.858 24.4656L14.5128 24.7277C14.7291 24.8197 14.943 24.9169 15.1586 25.0098L15.4814 25.1502C15.5889 25.1974 15.6977 25.2408 15.8032 25.2923L16.4414 25.5873L17.08 25.8774C18.7741 26.656 20.5112 27.339 22.2781 27.9307C23.1594 28.2327 24.048 28.5118 24.9326 28.7979L26.262 29.2187C26.7045 29.3601 27.1493 29.4945 27.5934 29.6299C28.4836 29.8948 29.3768 30.1467 30.2727 30.3869C31.1695 30.6236 32.0667 30.8552 32.9668 31.0746C34.7668 31.514 36.5783 31.902 38.4064 32.2086C39.3204 32.3603 40.2388 32.4911 41.1611 32.5976C42.0834 32.7055 43.0103 32.7838 43.9425 32.8419C43.9653 32.8432 43.9829 32.8631 43.9816 32.886C43.9802 32.9069 43.964 32.9232 43.9442 32.9248C43.0116 33.0128 42.0725 33.037 41.1339 33.0234C40.1951 33.0081 39.2566 32.9504 38.3217 32.8588C37.3869 32.7662 36.455 32.6397 35.5287 32.4841L35.1811 32.4263L34.8346 32.363C34.6037 32.3195 34.3723 32.2787 34.1424 32.2309C33.9123 32.1844 33.6818 32.1399 33.4523 32.0895L32.7648 31.9368C31.8501 31.7241 30.9416 31.4865 30.0408 31.2239C29.14 30.9611 28.2472 30.674 27.3579 30.3773C26.47 30.0773 25.5861 29.766 24.7127 29.4278C24.2769 29.2566 23.841 29.085 23.4094 28.9035L22.7616 28.633L22.1168 28.3552C21.6855 28.1736 21.2599 27.9788 20.8304 27.7953L20.1885 27.5129L19.8671 27.3735L19.5463 27.2324L18.2609 26.6742L17.6173 26.3974C17.4034 26.3035 17.1881 26.2136 16.9732 26.1223C16.5426 25.9414 16.1097 25.7745 15.6762 25.6066C15.5684 25.5634 15.4576 25.5282 15.3478 25.4897L15.0178 25.3776C14.7979 25.3032 14.5783 25.2282 14.3574 25.1579L13.6904 24.9607C13.4681 24.8957 13.2476 24.826 13.0224 24.7719C12.5739 24.6581 12.1298 24.5306 11.6791 24.432L11.0068 24.2714C10.7809 24.2259 10.5561 24.1768 10.3312 24.1284C10.2187 24.1045 10.1063 24.0796 9.9942 24.0544L9.65524 23.992C9.42905 23.9508 9.20352 23.9057 8.97765 23.8629C8.7508 23.828 8.52328 23.7955 8.29642 23.7593C8.183 23.7417 8.06957 23.7231 7.95581 23.7066L7.61354 23.6677L7.27127 23.6272L7.09997 23.6067C7.04276 23.5997 6.98589 23.5924 6.92868 23.5891C6.69984 23.5721 6.47067 23.5539 6.24149 23.5343L6.06953 23.52C6.01232 23.5151 5.95478 23.5147 5.89757 23.5121L5.55299 23.4978L5.20808 23.4825C5.093 23.4749 4.97825 23.4792 4.86316 23.4772L4.17202 23.4736L3.48054 23.4961C2.55823 23.5376 1.63626 23.6319 0.711309 23.7656H0.710978C0.68816 23.7689 0.667326 23.753 0.664019 23.7304C0.661043 23.7102 0.673279 23.6913 0.692128 23.685L0.691467 23.684Z" fill="#6C9CA3"/>
<path d="M43.2403 35.3018C42.5693 35.4542 41.8904 35.5122 41.2138 35.5195C41.1291 35.5209 41.0445 35.5212 40.9598 35.5202L40.7058 35.5182C40.5368 35.5139 40.3682 35.5033 40.1995 35.4936C40.0309 35.482 39.8622 35.4724 39.6946 35.4518C39.5269 35.4303 39.3599 35.4044 39.1936 35.3725C38.8602 35.3148 38.5322 35.2202 38.2038 35.1359C37.8754 35.0522 37.549 34.9616 37.2187 34.8996C36.8883 34.8388 36.5576 34.7824 36.2236 34.7439C36.1403 34.7333 36.0563 34.726 35.9726 34.717C35.8889 34.7081 35.8053 34.6985 35.7213 34.6908C35.5536 34.6742 35.3846 34.6633 35.2163 34.6493L34.963 34.6314C34.8787 34.6245 34.7947 34.6162 34.7104 34.6082L34.4577 34.5836C34.3737 34.574 34.2894 34.566 34.2057 34.5551C33.8694 34.5186 33.5387 34.4532 33.206 34.3965C32.8734 34.3404 32.5423 34.2753 32.2123 34.2063C32.0473 34.1714 31.8819 34.1379 31.7182 34.0971C31.5545 34.0566 31.3918 34.0135 31.2291 33.9683C31.0668 33.9235 30.9047 33.8761 30.7434 33.8273C30.5823 33.7772 30.4226 33.7234 30.2625 33.6693C29.9431 33.5611 29.6243 33.4499 29.3108 33.3238C29.1534 33.2621 28.997 33.1977 28.8409 33.133L28.6074 33.0338C28.5297 33.0002 28.4526 32.9647 28.3756 32.9292C28.068 32.7855 27.7625 32.6372 27.4642 32.4689L27.4768 32.4709C27.4539 32.4659 27.4394 32.443 27.4447 32.4201C27.4483 32.4035 27.4612 32.3912 27.4768 32.3879L27.4893 32.3899C27.8313 32.4188 28.1659 32.4676 28.4986 32.521L28.9966 32.6036C29.162 32.6325 29.3273 32.6621 29.4914 32.6942C29.8194 32.76 30.1484 32.821 30.4742 32.892C30.6375 32.9262 30.7999 32.9631 30.9626 32.9996C31.1256 33.0348 31.288 33.0713 31.4497 33.1104C31.6114 33.1493 31.7728 33.1901 31.9335 33.2332C32.0946 33.2754 32.2553 33.3172 32.4157 33.362C32.7368 33.4496 33.0559 33.5465 33.378 33.6318L33.8601 33.7642L33.9805 33.7981C34.0205 33.8097 34.0605 33.822 34.1009 33.8329C34.1812 33.8548 34.2613 33.8784 34.3416 33.902C34.6624 33.9946 34.9799 34.1077 35.301 34.2036C35.4617 34.2514 35.6221 34.3019 35.7835 34.347C35.8641 34.3702 35.9452 34.3915 36.0259 34.4134C36.1072 34.432 36.1886 34.4525 36.2702 34.4695C36.3519 34.4874 36.4336 34.505 36.5156 34.5206C36.5976 34.5372 36.6796 34.5524 36.762 34.5664C36.8443 34.5813 36.9267 34.5953 37.0093 34.6072C37.092 34.6182 37.175 34.6281 37.2583 34.6364C37.4247 34.654 37.5917 34.6653 37.759 34.6739C37.9263 34.6835 38.0943 34.6839 38.2627 34.6825L38.7663 34.6815C38.8083 34.6815 38.85 34.6815 38.892 34.6822L39.0176 34.6815C39.101 34.6829 39.1846 34.6819 39.268 34.6852C39.4346 34.6888 39.6007 34.6981 39.766 34.7121C39.9317 34.7244 40.0967 34.7396 40.2617 34.7572C40.4267 34.7748 40.5914 34.7954 40.7564 34.815L41.0038 34.8438C41.0865 34.8531 41.1688 34.8637 41.2511 34.8754C41.5812 34.9231 41.9115 34.963 42.2426 35.0214C42.4082 35.0522 42.5739 35.0768 42.7403 35.109C42.9066 35.1412 43.0729 35.175 43.2403 35.2198H43.2419C43.2644 35.2262 43.278 35.2497 43.272 35.2723C43.2677 35.2882 43.2551 35.2995 43.2403 35.3028V35.3018Z" fill="#6C9CA3"/>
<path d="M1.05534 25.9372C1.2597 25.8556 1.46738 25.7843 1.67638 25.7146L1.83346 25.6631C1.88604 25.6472 1.93928 25.6342 1.99219 25.62C2.09801 25.5911 2.20483 25.5652 2.31131 25.538L2.63241 25.4603C2.68598 25.4464 2.74022 25.4384 2.79412 25.4281L2.95616 25.3986C3.0643 25.379 3.17277 25.3618 3.28156 25.3432C3.3358 25.3339 3.39003 25.3249 3.4446 25.3166C3.49916 25.3083 3.55339 25.299 3.60796 25.2941C3.71709 25.2815 3.82655 25.2698 3.93601 25.2596C4.04546 25.2489 4.15492 25.2376 4.26471 25.228L4.4294 25.2141L4.59409 25.2068C4.70388 25.2015 4.814 25.1995 4.92379 25.1962C5.36394 25.1723 5.80409 25.2021 6.24193 25.241C6.46052 25.2665 6.67812 25.3024 6.89505 25.3385L7.21979 25.3943L7.54222 25.4633C7.75684 25.5101 7.97113 25.5549 8.18508 25.5957C8.29157 25.6203 8.39838 25.6435 8.50487 25.6668C8.61168 25.688 8.71816 25.7112 8.82498 25.7312C8.93179 25.7517 9.03894 25.7706 9.14608 25.7886L9.46619 25.8503C9.57301 25.8709 9.67982 25.8901 9.78696 25.9084C9.89411 25.9276 10.0016 25.9442 10.1091 25.9611C10.2169 25.9771 10.323 25.9993 10.4305 26.0182C10.5376 26.0365 10.6451 26.0557 10.7526 26.073C10.8604 26.0906 10.9682 26.1075 11.0763 26.1234L11.2387 26.1477L11.3998 26.1779C11.6147 26.217 11.8303 26.2549 12.0456 26.296C12.1531 26.3169 12.2615 26.3345 12.3687 26.3584C12.4752 26.3836 12.582 26.4079 12.6881 26.4344C12.7946 26.4603 12.9008 26.4865 13.0069 26.5141C13.1131 26.5409 13.2189 26.5688 13.3247 26.5977C13.4312 26.6242 13.5347 26.6591 13.6392 26.6913L13.9527 26.7889C14.1614 26.8546 14.3714 26.918 14.5797 26.9857C14.7861 27.0587 14.9927 27.1304 15.1984 27.2057C15.3013 27.2432 15.4048 27.2794 15.507 27.3182L15.6607 27.3759C15.712 27.3949 15.7619 27.4171 15.8129 27.4377C16.0149 27.5213 16.216 27.6083 16.416 27.6969C16.8198 27.8728 17.2044 28.0623 17.5923 28.2531C17.9802 28.4429 18.3661 28.6371 18.7514 28.8342C19.1367 29.0314 19.5206 29.2318 19.9029 29.4386C20.2848 29.6457 20.6658 29.8564 21.0415 30.0834C21.0613 30.0954 21.0676 30.1213 21.0557 30.1412C21.0461 30.1571 21.0279 30.1641 21.011 30.1607C20.5821 30.0685 20.1605 29.955 19.7422 29.8335C19.3238 29.7114 18.9091 29.579 18.4974 29.4382C18.0857 29.2975 17.677 29.1492 17.2715 28.9925C16.8658 28.8379 16.462 28.6703 16.0675 28.5116C15.8694 28.4303 15.6723 28.3477 15.4762 28.2617C15.4269 28.2405 15.3787 28.2176 15.3291 28.198L15.1802 28.1383C15.081 28.0988 14.9828 28.0563 14.8839 28.0155C14.6862 27.9338 14.4898 27.8489 14.2927 27.7649C14.0942 27.6853 13.8948 27.6083 13.6958 27.5296L13.3968 27.4121C13.2969 27.3736 13.1981 27.3321 13.0969 27.2973C12.996 27.2614 12.8955 27.2249 12.7953 27.1871C12.6948 27.1503 12.5946 27.1114 12.4947 27.0729C12.3945 27.0348 12.2946 26.9943 12.1947 26.9551C12.0949 26.9153 11.9934 26.8804 11.8928 26.8426C11.6908 26.7693 11.4894 26.6929 11.287 26.6176L11.1349 26.5618L10.9814 26.5121C10.8792 26.4782 10.7764 26.446 10.6736 26.4142C10.4675 26.3518 10.2615 26.2864 10.0525 26.2349C9.94768 26.2104 9.84285 26.1858 9.73769 26.1636C9.63253 26.14 9.52704 26.1185 9.42155 26.0975C9.31606 26.0763 9.21057 26.0544 9.10441 26.0371C8.99793 26.0222 8.89112 26.0079 8.7843 25.9953C8.67749 25.9821 8.57034 25.9721 8.4632 25.9605C8.35605 25.9509 8.24891 25.9406 8.14143 25.9329C7.92582 25.925 7.71021 25.921 7.49526 25.919L7.17283 25.9157L6.85041 25.9246C6.74293 25.9283 6.63612 25.9286 6.5293 25.9309L6.20919 25.9323C5.99589 25.9399 5.78293 25.9419 5.57029 25.9389C5.35766 25.9326 5.14535 25.9363 4.93305 25.9343C4.82689 25.9333 4.72041 25.9343 4.61426 25.9316L4.45486 25.929L4.29547 25.9329C4.18932 25.9353 4.08283 25.9356 3.97635 25.9372C3.86987 25.9389 3.76338 25.9392 3.65657 25.9386L3.01668 25.9568C2.90986 25.9595 2.80239 25.9585 2.69524 25.9638L2.37381 25.9784C2.26633 25.9817 2.15886 25.9867 2.05072 25.9884C1.99682 25.99 1.94259 25.99 1.88868 25.9927L1.72697 26.0013C1.51103 26.0116 1.29377 26.0202 1.07286 26.0186H1.07121C1.04806 26.0186 1.02954 25.9993 1.02954 25.9761C1.02954 25.9585 1.04045 25.9436 1.056 25.9372H1.05534Z" fill="#6C9CA3"/>
<path d="M28.5718 35.1443C28.8776 35.1476 29.1746 35.1791 29.4689 35.217L29.6892 35.2475L29.9084 35.2804C30.0539 35.3043 30.1994 35.3285 30.3439 35.356C30.6323 35.4131 30.9203 35.4699 31.2054 35.5376C31.4905 35.6049 31.7739 35.6789 32.0516 35.7759C32.1214 35.7994 32.1902 35.826 32.2596 35.8512C32.3284 35.8784 32.3979 35.9036 32.4663 35.9325L32.88 36.0948C33.0179 36.1495 33.1565 36.2026 33.296 36.2518C33.4356 36.3002 33.5768 36.343 33.7187 36.3812C34.0027 36.4575 34.2911 36.5156 34.5824 36.5561C34.7279 36.577 34.8744 36.5936 35.0213 36.6075C35.1678 36.6231 35.3163 36.6281 35.4634 36.6377C35.6112 36.6454 35.7587 36.6517 35.9059 36.661C35.9796 36.6653 36.053 36.6699 36.1268 36.6726C36.2002 36.6772 36.2739 36.6802 36.347 36.6859C36.6403 36.7044 36.9307 36.7416 37.2224 36.7665L37.6589 36.8077C37.8041 36.8236 37.9502 36.8316 38.0954 36.8472C38.2409 36.8604 38.3857 36.875 38.5306 36.893L38.7479 36.9175C38.8203 36.9268 38.8927 36.9348 38.9648 36.9447C39.1093 36.9636 39.2535 36.9852 39.3977 37.0078C39.5422 37.0277 39.6864 37.0499 39.8305 37.0732C39.9026 37.0848 39.9751 37.0957 40.0472 37.1087C40.1192 37.1213 40.1913 37.1342 40.2638 37.1445C40.4083 37.1684 40.5528 37.1916 40.6973 37.2185C40.7694 37.2318 40.8418 37.2444 40.9142 37.259C40.9866 37.2733 41.0591 37.2842 41.1315 37.2982C41.2763 37.3251 41.4212 37.3533 41.5664 37.3838C41.8567 37.4455 42.148 37.5023 42.4404 37.5856H42.4417C42.4642 37.5922 42.4774 37.6158 42.4708 37.6387C42.4665 37.6543 42.4536 37.6656 42.4387 37.6686C41.8465 37.794 41.2492 37.8518 40.6526 37.8727C40.5035 37.8783 40.3544 37.88 40.2052 37.8826C40.0561 37.8839 39.9073 37.8803 39.7585 37.876C39.6096 37.8723 39.4605 37.867 39.312 37.8601C39.1635 37.8504 39.0154 37.8391 38.8672 37.8252C38.7191 37.8113 38.5709 37.797 38.4238 37.7768C38.2766 37.7565 38.1298 37.7329 37.983 37.7084C37.8365 37.6842 37.6896 37.6596 37.5438 37.6301L37.1066 37.5418C36.815 37.4847 36.5249 37.421 36.2372 37.344C36.1651 37.3257 36.0937 37.3045 36.022 37.2849C35.9502 37.2647 35.8791 37.2418 35.808 37.2195C35.6655 37.1757 35.5236 37.1289 35.3817 37.0838C35.097 36.9962 34.8149 36.9016 34.5282 36.8292C34.3853 36.7914 34.2412 36.7599 34.0973 36.727C33.9535 36.6935 33.8086 36.6656 33.6631 36.6417C33.5904 36.6294 33.5169 36.6192 33.4435 36.6092L33.2226 36.5827C33.0751 36.5654 32.927 36.5518 32.7778 36.5405L32.3311 36.5037C32.2567 36.497 32.1829 36.4871 32.1089 36.4791C32.0351 36.4688 31.9614 36.4602 31.888 36.4486C31.7411 36.4263 31.5953 36.3991 31.4508 36.3669C31.3059 36.3354 31.1641 36.2936 31.0215 36.2534C30.7375 36.1701 30.4537 36.0842 30.1756 35.9803C29.6181 35.7762 29.0698 35.5412 28.5493 35.2236C28.5291 35.2113 28.5228 35.1848 28.535 35.1645C28.5433 35.1513 28.5575 35.144 28.5721 35.144H28.5731L28.5718 35.1443Z" fill="#6C9CA3"/>
<path d="M1.50277 28.1919C1.68895 28.1199 1.87811 28.0585 2.06859 27.9984C2.25841 27.9354 2.45186 27.8919 2.64565 27.8467C2.74254 27.8242 2.83976 27.8039 2.93699 27.7824L3.08316 27.7522L3.23031 27.7283C3.42675 27.6981 3.62351 27.6689 3.82093 27.6436C3.87021 27.6373 3.91948 27.6294 3.96908 27.6257L4.11756 27.6141C4.21677 27.6068 4.31565 27.5982 4.41486 27.5919L4.71281 27.5733L4.78722 27.5686L4.86162 27.568L5.01077 27.567C5.20951 27.565 5.40859 27.5643 5.60701 27.5706C5.65661 27.571 5.70621 27.5756 5.75582 27.5796L5.9043 27.5925C6.00318 27.6018 6.10205 27.6131 6.20093 27.6247C6.29981 27.6353 6.39836 27.6503 6.49657 27.6629C6.54585 27.6695 6.59479 27.6782 6.64373 27.6878C6.69267 27.6967 6.74162 27.7064 6.79056 27.7163L7.37489 27.8345C7.47212 27.8524 7.56835 27.8789 7.66524 27.9005C7.76181 27.9234 7.85837 27.9447 7.95493 27.9659C8.05149 27.9871 8.14805 28.006 8.24462 28.0253L8.38979 28.0522C8.43774 28.0628 8.48602 28.0738 8.53397 28.0834C8.91857 28.166 9.30846 28.2155 9.69504 28.2865C9.88916 28.3183 10.0839 28.3462 10.28 28.3714L10.8657 28.4597L11.16 28.5019L11.3072 28.5231C11.3564 28.5301 11.4044 28.5407 11.4533 28.5493L11.7453 28.6038C11.8422 28.6233 11.9398 28.6416 12.0367 28.6622C12.1336 28.6824 12.2308 28.7027 12.3274 28.7242C12.4243 28.7455 12.5192 28.773 12.6147 28.7986L13.1872 28.9562C13.2824 28.9831 13.3786 29.0077 13.4732 29.0369L13.7566 29.1255C13.9451 29.1855 14.1343 29.244 14.3224 29.3064C14.5122 29.3641 14.6955 29.4384 14.881 29.5075C15.0662 29.5775 15.25 29.6508 15.4329 29.7258L15.5701 29.7823C15.6154 29.8018 15.6601 29.8231 15.7054 29.8437L15.9746 29.9685C16.1538 30.0521 16.3321 30.1377 16.5096 30.2247C16.6895 30.3096 16.8595 30.4016 17.0341 30.4905C17.2071 30.5814 17.3807 30.671 17.553 30.764C17.8982 30.9482 18.2421 31.1363 18.5837 31.3311C18.925 31.5263 19.2653 31.7254 19.5996 31.9411C19.6191 31.9538 19.6248 31.98 19.6122 31.9996C19.6026 32.0145 19.5848 32.0215 19.5682 32.0181C19.179 31.9362 18.7974 31.8339 18.4187 31.7241C18.0401 31.6139 17.6651 31.4934 17.2934 31.3653C17.1069 31.3023 16.9223 31.2349 16.7375 31.1682L16.1872 30.9631C16.0053 30.8964 15.8238 30.828 15.6435 30.7583L15.3734 30.6525L15.2385 30.599L15.1025 30.5486C14.9216 30.4809 14.7414 30.4115 14.5622 30.3388L14.2937 30.2296C14.2044 30.1921 14.1144 30.1573 14.0245 30.1228C13.8439 30.0541 13.6647 29.9817 13.4851 29.9107L13.2159 29.8025C13.126 29.7663 13.0347 29.7355 12.9441 29.702L12.3991 29.5028L12.2629 29.4524C12.2176 29.4355 12.1726 29.4169 12.1266 29.4016C12.035 29.3704 11.9441 29.3375 11.8528 29.3044C11.7615 29.2718 11.6709 29.237 11.5797 29.2035L11.3072 29.0986C11.2166 29.0624 11.1246 29.0309 11.033 28.9984L10.7576 28.9011L10.4811 28.8055C10.3888 28.774 10.2969 28.7408 10.2033 28.7133C10.0165 28.6592 9.82864 28.6077 9.63981 28.5606C9.45099 28.5128 9.26183 28.4667 9.0697 28.4365C8.87823 28.402 8.68576 28.3724 8.49297 28.3476C8.44469 28.3409 8.39641 28.3353 8.34812 28.3303L8.20262 28.3193C8.1054 28.3137 8.00817 28.3074 7.91095 28.3034C7.81372 28.2994 7.7165 28.2951 7.61895 28.2931C7.52172 28.2905 7.4245 28.2872 7.32694 28.2908L6.7436 28.3031C6.54981 28.3037 6.35636 28.3134 6.16323 28.3167C6.06667 28.3183 5.97044 28.3197 5.87421 28.319L5.73002 28.317C5.68207 28.3157 5.63379 28.3147 5.58584 28.3157C5.39371 28.3177 5.20191 28.313 5.00977 28.3067L4.86559 28.3024C4.81764 28.3008 4.76936 28.2994 4.72141 28.2998L4.43338 28.2988C4.24124 28.2974 4.04845 28.2898 3.85599 28.2905C3.08415 28.2838 2.31297 28.3027 1.51633 28.2755H1.51567C1.49252 28.2749 1.47433 28.2553 1.47499 28.2317C1.47565 28.2141 1.48657 28.1995 1.50178 28.1939L1.50277 28.1919Z" fill="#6C9CA3"/>
<path d="M29.2668 37.7675C29.5399 37.7582 29.8041 37.7775 30.0664 37.803C30.3283 37.8289 30.5876 37.8634 30.8445 37.9069C30.9087 37.9179 30.9728 37.9291 31.0363 37.9414L31.2281 37.9766C31.3558 38.0008 31.4824 38.0277 31.6091 38.0556C31.8621 38.112 32.1131 38.1754 32.3584 38.263C32.4199 38.2843 32.4808 38.3085 32.542 38.331L32.7245 38.4044L33.0896 38.5534C33.2113 38.6038 33.3336 38.6523 33.4567 38.6968C33.5803 38.7396 33.7047 38.7794 33.8303 38.8133C34.0813 38.8823 34.337 38.9301 34.5952 38.9643C34.7242 38.9815 34.8538 38.9948 34.9841 39.0051C35.0493 39.0107 35.1144 39.0137 35.1802 39.0164L35.3767 39.0247C35.5076 39.0293 35.6386 39.0326 35.7692 39.0386C35.8343 39.0419 35.8998 39.0429 35.9653 39.0452C36.0304 39.0486 36.0956 39.0502 36.1607 39.0549C36.2256 39.0589 36.2907 39.0625 36.3552 39.0681C36.42 39.0728 36.4845 39.0788 36.549 39.0854L36.9359 39.1209L37.7084 39.1903C37.837 39.2022 37.9653 39.2152 38.0933 39.2318C38.2216 39.2457 38.3493 39.2616 38.4769 39.2802C38.9872 39.3565 39.4958 39.4475 40.0057 39.552L40.3883 39.6337C40.516 39.6619 40.6436 39.6914 40.7713 39.7229C41.0269 39.7867 41.2832 39.8487 41.5398 39.9357H41.5408C41.5633 39.9436 41.5752 39.9679 41.5676 39.9904C41.5626 40.005 41.5504 40.0153 41.5362 40.0186C41.0094 40.1355 40.4799 40.1859 39.9518 40.2052C39.6879 40.2135 39.4234 40.2178 39.1601 40.2075C39.0285 40.2038 38.8966 40.1989 38.7653 40.1919C38.6995 40.1889 38.634 40.1833 38.5685 40.178C38.503 40.173 38.4376 40.1667 38.3721 40.1604C38.2411 40.1477 38.1105 40.1328 37.9802 40.1152C37.8503 40.0966 37.7206 40.0741 37.591 40.0508C37.4614 40.0286 37.3324 40.0034 37.2034 39.9778L36.8175 39.8955C36.6892 39.8673 36.5602 39.8421 36.4322 39.8116C36.3681 39.7966 36.3043 39.781 36.2408 39.7641C36.1769 39.7482 36.1135 39.7302 36.05 39.7127C35.7957 39.6433 35.5453 39.5557 35.295 39.471C35.044 39.3891 34.7946 39.3035 34.5413 39.2377C34.4782 39.2211 34.4147 39.2045 34.3512 39.1903L34.2559 39.168L34.1604 39.1475C34.0331 39.1183 33.9051 39.094 33.7758 39.0741C33.6468 39.0539 33.5162 39.0399 33.3849 39.0283C33.2539 39.0157 33.1223 39.0067 32.9901 38.9998L32.5929 38.9765C32.4606 38.9679 32.3297 38.9536 32.199 38.9367C32.0687 38.9195 31.9391 38.8972 31.8111 38.87C31.6825 38.8441 31.5568 38.808 31.4305 38.7728C31.1788 38.7001 30.9275 38.6248 30.6811 38.5328C30.1878 38.351 29.703 38.1405 29.2443 37.8472C29.2241 37.8342 29.2182 37.8077 29.2311 37.7874C29.239 37.7751 29.2522 37.7678 29.2658 37.7675H29.2671H29.2668Z" fill="#6C9CA3"/>
<path d="M2.03548 30.4546C2.2091 30.3909 2.38536 30.3382 2.56261 30.2867C2.65123 30.2622 2.73986 30.2353 2.82948 30.2154C2.9191 30.1944 3.00871 30.1769 3.09866 30.1579C3.27889 30.1224 3.45945 30.0849 3.641 30.059C3.82288 30.0355 4.00509 30.0129 4.18797 29.9943C4.91847 29.9316 5.6579 29.9084 6.38542 30.0179C6.56697 30.0451 6.74853 30.0746 6.92842 30.1115L7.46547 30.2366C7.55476 30.2575 7.64371 30.2787 7.733 30.2983L7.99921 30.3644C8.17679 30.4068 8.35437 30.4467 8.53262 30.4802C8.57693 30.4892 8.6219 30.4961 8.66622 30.5057L8.79949 30.5333C8.88844 30.5512 8.9774 30.5678 9.06702 30.5831C9.24526 30.6163 9.42516 30.6412 9.60439 30.6697C9.78297 30.7009 9.96287 30.7281 10.1434 30.7523C10.2337 30.7646 10.3243 30.7762 10.4153 30.7865C10.5065 30.7958 10.5958 30.8124 10.6864 30.8253C10.867 30.8519 11.0485 30.8775 11.2294 30.9057C11.3197 30.9203 11.411 30.9319 11.5009 30.9488C11.5905 30.9671 11.6805 30.984 11.7698 31.0032C11.8594 31.0222 11.9487 31.0407 12.038 31.0613C12.1273 31.0809 12.2162 31.1018 12.3052 31.1234L12.4384 31.1556L12.5704 31.1924L12.8343 31.2661L13.3627 31.4141C13.451 31.438 13.5377 31.4675 13.6246 31.4947C13.7119 31.522 13.7986 31.5508 13.8852 31.5794C14.0588 31.6361 14.2324 31.6939 14.4047 31.7553C14.5764 31.8177 14.7454 31.8877 14.9143 31.9571C15.0833 32.0268 15.2513 32.0988 15.4186 32.1721C15.5853 32.2471 15.7487 32.3291 15.9127 32.4094C16.0771 32.4894 16.2394 32.5727 16.4025 32.655C16.4841 32.6965 16.5632 32.739 16.6432 32.7808C16.7232 32.8226 16.8029 32.8651 16.8823 32.9082C17.2004 33.0795 17.5162 33.2567 17.8291 33.4419C18.1416 33.6281 18.4524 33.8186 18.7557 34.0293L18.7563 34.03C18.7755 34.0432 18.7801 34.0695 18.7669 34.0887C18.757 34.103 18.7398 34.1093 18.7236 34.106C18.3638 34.0303 18.0119 33.9344 17.6614 33.8342C17.3112 33.7333 16.9643 33.6238 16.6194 33.5086C16.4471 33.4522 16.2745 33.3908 16.1045 33.3327C15.9355 33.273 15.7662 33.2142 15.5985 33.1518L15.0956 32.9656C14.9269 32.9066 14.7592 32.8458 14.5922 32.7828C14.5086 32.7519 14.4256 32.7191 14.3422 32.6872C14.2592 32.6547 14.1766 32.6208 14.0932 32.5896C13.9259 32.5282 13.7599 32.4635 13.5939 32.3978C13.5109 32.3649 13.4279 32.3327 13.3452 32.2989C13.2622 32.2657 13.1802 32.2302 13.0962 32.2007L12.5949 32.0128L12.3439 31.9186L12.2182 31.8714L12.0915 31.828C12.0072 31.7991 11.9229 31.7695 11.8389 31.7387C11.7546 31.7088 11.6709 31.677 11.5872 31.6454C11.2536 31.5133 10.9153 31.3945 10.578 31.2661C10.4093 31.2024 10.2383 31.1459 10.0664 31.0932C9.89441 31.0397 9.72179 30.9893 9.54818 30.9425C9.46153 30.9186 9.37357 30.901 9.28561 30.8821C9.19797 30.8629 9.10968 30.8456 9.02138 30.8287C8.93342 30.8114 8.84479 30.7951 8.7565 30.7802C8.66787 30.7649 8.57924 30.7507 8.48963 30.7427C8.31105 30.7231 8.13149 30.7102 7.95192 30.6999C7.86197 30.6956 7.77235 30.6893 7.6824 30.6886C7.59212 30.688 7.50218 30.6896 7.4119 30.6903L6.87287 30.6956L6.60401 30.7042C6.51472 30.7052 6.42544 30.7085 6.33615 30.7075C6.24719 30.7075 6.15824 30.7072 6.06928 30.7049L6.00281 30.7029H5.93634L5.80307 30.7019C5.62549 30.6996 5.44857 30.6903 5.27132 30.6806C5.18269 30.6737 5.09407 30.6743 5.00544 30.6707C4.91681 30.6684 4.82819 30.6651 4.73923 30.6614L4.47269 30.6485C4.38374 30.6428 4.29511 30.6428 4.20615 30.6398C3.49351 30.607 2.78087 30.6023 2.0454 30.5363H2.04474C2.02159 30.5343 2.0044 30.5134 2.00638 30.4901C2.00803 30.4732 2.01928 30.4596 2.03416 30.454L2.03548 30.4546Z" fill="#6C9CA3"/>
<path d="M29.9451 40.3759C30.1835 40.3543 30.4137 40.3613 30.6415 40.3749C30.8694 40.3889 31.0942 40.4117 31.3168 40.4443C31.4279 40.4605 31.5387 40.4785 31.6491 40.497C31.7596 40.516 31.8694 40.5375 31.9788 40.5601C32.1978 40.6059 32.4144 40.659 32.6257 40.7373C32.8373 40.8143 33.045 40.9092 33.2547 40.9995C33.3592 41.0453 33.464 41.0901 33.5705 41.1293C33.6766 41.1688 33.7838 41.2033 33.8919 41.2335C34.1082 41.2945 34.3291 41.3344 34.552 41.3609C34.6075 41.3679 34.6637 41.3725 34.7196 41.3785C34.7758 41.3828 34.8321 41.3878 34.8883 41.3908C35.001 41.3964 35.1145 41.3984 35.2279 41.4001L35.5679 41.4044C35.6813 41.4051 35.794 41.4071 35.9065 41.4124C35.9627 41.415 36.0189 41.4173 36.0748 41.4217C36.1307 41.425 36.1866 41.4296 36.2421 41.4349C36.3536 41.4432 36.465 41.4538 36.5765 41.4631L37.2438 41.5202C37.3546 41.5308 37.4654 41.5435 37.5758 41.5571C37.6863 41.5697 37.7967 41.5849 37.9065 41.6025C38.1261 41.6387 38.3457 41.6772 38.5646 41.723C38.7835 41.7688 39.0024 41.8146 39.221 41.8687L39.5494 41.9513C39.6589 41.9802 39.7683 42.0104 39.8778 42.0433C40.0967 42.1083 40.3163 42.1744 40.5352 42.264H40.5362C40.5583 42.2733 40.5689 42.2988 40.56 42.321C40.5547 42.3343 40.5431 42.3436 40.5299 42.3469C40.0722 42.4571 39.6142 42.5026 39.1575 42.5215C38.9294 42.5291 38.7008 42.5338 38.474 42.5245C38.2465 42.5185 38.0196 42.5066 37.7941 42.482C37.6813 42.4704 37.5689 42.4565 37.4564 42.4402C37.3443 42.4243 37.2329 42.4027 37.1211 42.3818C37.0097 42.3605 36.8986 42.3366 36.7874 42.3137L36.4554 42.2381C36.345 42.2125 36.2342 42.188 36.1237 42.1614C36.0685 42.1478 36.0136 42.1335 35.9591 42.1179C35.9042 42.1033 35.8496 42.0867 35.795 42.0705C35.6859 42.0376 35.5774 42.0018 35.4693 41.9646L35.1465 41.8471C35.0391 41.8083 34.9316 41.7698 34.8235 41.7346C34.7696 41.716 34.7153 41.6994 34.6614 41.6819C34.6072 41.6663 34.553 41.649 34.4984 41.6344C34.3896 41.6045 34.2801 41.578 34.1697 41.5551C34.0596 41.5312 33.9491 41.5103 33.8373 41.4947C33.7256 41.4791 33.6131 41.4678 33.499 41.4612C33.3853 41.4538 33.2712 41.4489 33.1564 41.4465C32.9273 41.4399 32.6958 41.4392 32.4702 41.4124C32.2441 41.3878 32.0225 41.3427 31.8052 41.2793C31.5876 41.2176 31.3714 41.1518 31.1587 41.0719C30.7334 40.9122 30.3154 40.7257 29.9226 40.4559C29.9027 40.4423 29.8975 40.4147 29.9113 40.3948C29.9189 40.3835 29.9309 40.3772 29.9434 40.3759H29.9444H29.9451Z" fill="#6C9CA3"/>
<path d="M2.66089 32.7342C2.82326 32.6784 2.98729 32.6336 3.15264 32.5905C3.23531 32.5696 3.31798 32.548 3.40099 32.5304C3.48399 32.5131 3.56766 32.4992 3.65099 32.4836C3.81799 32.4544 3.98598 32.4268 4.15431 32.4043C4.32263 32.387 4.49161 32.3704 4.6606 32.3581C4.74525 32.3512 4.82991 32.3445 4.91457 32.3406L5.16854 32.3342C5.33786 32.3313 5.5075 32.3309 5.67682 32.3319C5.8458 32.3386 6.01512 32.3472 6.18377 32.3618C6.2681 32.3688 6.35242 32.3777 6.43642 32.387C6.52075 32.396 6.60408 32.4129 6.68742 32.4272C6.85442 32.457 7.02076 32.4912 7.1861 32.5291C7.22744 32.5387 7.26878 32.5476 7.31011 32.5579L7.43346 32.5908L7.6795 32.6568C7.84319 32.7023 8.00721 32.7418 8.17025 32.7843C8.33328 32.8278 8.49631 32.8689 8.66033 32.9034C8.74235 32.9213 8.82436 32.9373 8.9067 32.9525L9.15307 33.0017C9.23508 33.0179 9.31742 33.0332 9.4001 33.0468C9.48244 33.0617 9.56544 33.0743 9.64812 33.087C9.68945 33.0936 9.73112 33.0996 9.77279 33.1052C9.81445 33.1102 9.85546 33.1188 9.89713 33.1251C9.98013 33.1377 10.0628 33.1513 10.1461 33.1626C10.3125 33.1868 10.4805 33.2058 10.6481 33.2273C10.7321 33.237 10.8151 33.2516 10.8988 33.2632L11.1495 33.3017C11.3165 33.3279 11.4845 33.3528 11.6501 33.386C11.7328 33.4036 11.8151 33.4212 11.8975 33.4404C11.9798 33.459 12.0618 33.4786 12.1439 33.4988L12.3896 33.5602C12.4716 33.5808 12.5536 33.601 12.6343 33.6249L13.1214 33.763L13.3648 33.8333C13.4051 33.8453 13.4461 33.8562 13.4861 33.8692L13.6062 33.909C13.7666 33.9618 13.9263 34.0156 14.0854 34.0726C14.2441 34.13 14.4035 34.1851 14.5583 34.2525C14.714 34.3176 14.8688 34.3846 15.0229 34.4533C15.1003 34.4871 15.1766 34.5227 15.2534 34.5572L15.3681 34.6103L15.4815 34.6667C15.7835 34.8167 16.0837 34.973 16.3784 35.134C16.6707 35.2949 16.9607 35.4619 17.2478 35.6368C17.5345 35.8127 17.8192 35.9929 18.0967 36.193H18.0973C18.1162 36.2069 18.1205 36.2335 18.1069 36.2527C18.097 36.2667 18.0801 36.2727 18.0646 36.2697C17.7303 36.204 17.4039 36.1187 17.0791 36.0284C16.7547 35.9375 16.4333 35.8386 16.1142 35.7337C15.7964 35.6305 15.4839 35.5246 15.1733 35.4114L15.0569 35.3693L14.9395 35.3298C14.8615 35.3029 14.7831 35.2767 14.7057 35.2488C14.55 35.1941 14.3952 35.1383 14.2411 35.0799L14.1257 35.0357C14.0873 35.0211 14.0483 35.0079 14.0096 34.9939C13.9326 34.9654 13.8549 34.9378 13.7781 34.9083C13.624 34.8509 13.4709 34.7898 13.3182 34.7281L13.2034 34.682L13.088 34.6382L12.8572 34.5502L12.3958 34.3717C12.3191 34.3408 12.2414 34.3136 12.1637 34.2864L11.9309 34.2034C11.8532 34.1758 11.7758 34.1473 11.6987 34.1178C11.6214 34.0889 11.5443 34.0584 11.4673 34.0278C11.1571 33.914 10.8492 33.7882 10.5383 33.6681C10.3816 33.6133 10.2255 33.5556 10.0674 33.5038C9.90936 33.452 9.75162 33.3983 9.59024 33.3601C9.50989 33.3398 9.42953 33.3196 9.34851 33.3013C9.26782 33.2821 9.1868 33.2645 9.10545 33.2476C9.02443 33.2307 8.94341 33.2127 8.8614 33.1998C8.77938 33.1875 8.69737 33.1759 8.61503 33.1663C8.45034 33.1457 8.285 33.1314 8.11932 33.1198C8.03665 33.1132 7.95298 33.1135 7.86965 33.1118C7.78631 33.1102 7.70298 33.1105 7.61997 33.1105H7.37063L7.24629 33.1099C7.20495 33.1102 7.16329 33.1122 7.12162 33.1132C6.95561 33.1181 6.79026 33.1195 6.62591 33.1165L6.50256 33.1138C6.46155 33.1125 6.42055 33.1105 6.37954 33.1108C6.29753 33.1095 6.21552 33.1079 6.13351 33.1042C5.96981 33.0979 5.80645 33.084 5.64309 33.071C5.47972 33.0624 5.31603 33.0524 5.15234 33.0402L4.90663 33.0196C4.86563 33.0166 4.82462 33.0153 4.78361 33.0129L4.6606 33.0046C4.49657 32.9947 4.33222 32.9804 4.16753 32.9655C4.08519 32.9585 4.00285 32.9549 3.92017 32.9486C3.8375 32.9416 3.75483 32.9359 3.67215 32.928C3.58915 32.9197 3.50648 32.9127 3.42314 32.9028C3.38148 32.8981 3.34014 32.8961 3.29847 32.8925L3.17347 32.8809C3.00647 32.8643 2.83848 32.846 2.66883 32.8168H2.66718C2.64403 32.8125 2.62849 32.7906 2.63245 32.7674C2.6351 32.7514 2.64634 32.7391 2.66056 32.7342H2.66089Z" fill="#6C9CA3"/>
<path d="M39.4181 44.6469C39.0318 44.7707 38.6495 44.8055 38.2702 44.8128C38.0807 44.8138 37.8919 44.8085 37.7044 44.7906C37.5166 44.7747 37.3304 44.7474 37.1478 44.6924C36.9653 44.6402 36.7857 44.5666 36.6068 44.4949C36.4279 44.4225 36.2484 44.3585 36.0661 44.3133C35.9749 44.2908 35.8829 44.2732 35.7903 44.2596C35.6978 44.2456 35.6048 44.2337 35.5112 44.2261C35.3241 44.2098 35.1336 44.2108 34.9425 44.2131C34.7513 44.2168 34.5588 44.2227 34.3694 44.2131C34.1795 44.2058 33.9924 44.1829 33.8052 44.1597C33.4305 44.1159 33.0555 44.0687 32.6914 43.9728C32.5095 43.9247 32.3286 43.8716 32.1504 43.8079C31.9718 43.7462 31.7946 43.6795 31.6196 43.6041C31.2698 43.4534 30.9258 43.2825 30.5991 43.0525L30.6094 43.0539C30.5866 43.0446 30.5753 43.0187 30.5842 42.9958C30.5889 42.9838 30.5981 42.9752 30.6094 42.9709L30.6196 42.9722C30.8187 42.9477 31.0122 42.9437 31.204 42.9443C31.3958 42.945 31.5853 42.9526 31.7731 42.9669C31.9609 42.9812 32.1478 42.9978 32.3326 43.0227C32.5178 43.0466 32.702 43.0721 32.8842 43.1076C33.0664 43.1431 33.247 43.1853 33.4259 43.2351C33.6048 43.2858 33.783 43.3386 33.9616 43.3914C34.1402 43.4451 34.3198 43.4936 34.4963 43.5577C34.6733 43.621 34.8482 43.6951 35.0245 43.7664C35.3757 43.9128 35.7364 44.019 36.1088 44.0498C36.4808 44.0857 36.8687 44.0083 37.2431 44.0064C37.4303 44.0057 37.6148 44.0239 37.7973 44.0568C37.9799 44.0893 38.1624 44.1235 38.3436 44.17C38.5249 44.2161 38.7061 44.2662 38.8863 44.3309C39.0665 44.3953 39.2468 44.4643 39.4253 44.5642L39.4263 44.5649C39.4478 44.5769 39.4558 44.6044 39.4435 44.626C39.4379 44.6363 39.4283 44.6436 39.4181 44.6469Z" fill="#6C9CA3"/>
<path d="M3.38772 35.0395C3.53786 34.9914 3.68964 34.9542 3.84209 34.9187C3.91815 34.9011 3.99454 34.8845 4.07126 34.8693C4.14765 34.855 4.22438 34.8447 4.30143 34.8324C4.37815 34.8208 4.4552 34.8112 4.53225 34.8002L4.76374 34.7724C4.91817 34.7594 5.07293 34.7498 5.2277 34.7422C5.84676 34.7179 6.46945 34.7349 7.07826 34.8547C7.15432 34.8706 7.22972 34.8895 7.30545 34.9068C7.38084 34.9264 7.45624 34.9439 7.53131 34.9648L7.75618 35.0259L7.9794 35.0943C8.12788 35.1404 8.27603 35.1846 8.42484 35.2247L8.53629 35.2546L8.6474 35.2861C8.72147 35.306 8.79588 35.3256 8.87029 35.3435C9.01943 35.3797 9.16923 35.4102 9.3197 35.4378C9.39444 35.454 9.4695 35.4693 9.5449 35.4829C9.61997 35.4978 9.69537 35.5105 9.7711 35.5231C10.074 35.5709 10.3786 35.614 10.6855 35.6532L10.9163 35.6814C10.993 35.6913 11.0691 35.7043 11.1455 35.7162L11.3746 35.7531C11.4507 35.7667 11.5274 35.7789 11.6031 35.7939C11.7556 35.8208 11.9061 35.8549 12.0555 35.8938L12.5039 36.0089C12.6541 36.0458 12.8019 36.0903 12.9501 36.1327C13.0982 36.1762 13.2467 36.2187 13.3942 36.2645C13.5427 36.3076 13.6878 36.3597 13.833 36.4122C13.9782 36.4643 14.1224 36.519 14.2659 36.5758C14.8367 36.8101 15.3926 37.0809 15.9306 37.3842C15.9981 37.4221 16.0655 37.4589 16.1323 37.4977L16.3304 37.6139C16.462 37.6926 16.593 37.7722 16.7233 37.8542C16.9832 38.0191 17.2418 38.1884 17.4921 38.3779H17.4925C17.5113 38.3925 17.5149 38.419 17.5007 38.438C17.4908 38.4512 17.4746 38.4569 17.4594 38.4542C17.1515 38.3991 16.8512 38.3245 16.553 38.2451C16.4038 38.205 16.2557 38.1628 16.1082 38.1194L15.8873 38.0523C15.8142 38.0311 15.7418 38.0075 15.669 37.9853C15.5235 37.9408 15.38 37.8924 15.2361 37.8452C15.0929 37.7961 14.9498 37.7473 14.8062 37.7009C14.6624 37.6541 14.5195 37.6059 14.3773 37.5558C14.2348 37.5064 14.0939 37.4529 13.9514 37.4048C13.8092 37.3554 13.668 37.3036 13.5274 37.2495C13.3866 37.1967 13.248 37.1373 13.1068 37.0852C12.9659 37.0325 12.8264 36.976 12.6862 36.9209C12.5459 36.8655 12.4067 36.8071 12.2649 36.7563L11.8409 36.5987C11.7701 36.5721 11.6997 36.5453 11.6296 36.5167L11.4179 36.4361C11.1352 36.3295 10.8574 36.2004 10.5727 36.0939C10.4305 36.0401 10.2886 35.9834 10.1451 35.9323C10.0023 35.8785 9.85608 35.838 9.71025 35.7962C9.63717 35.776 9.56408 35.7557 9.49034 35.7375C9.41692 35.7182 9.34318 35.7006 9.2691 35.684C9.12095 35.6522 8.97115 35.6279 8.82101 35.6064C8.67055 35.5861 8.52008 35.5669 8.36796 35.5602C8.21585 35.5526 8.0634 35.5493 7.91095 35.5476L7.68277 35.5446L7.45426 35.5483C7.3782 35.55 7.30247 35.5486 7.22674 35.549C7.15134 35.547 7.07561 35.547 7.00055 35.5436C6.92548 35.54 6.85008 35.5397 6.77501 35.5367C6.69995 35.5337 6.62488 35.53 6.55014 35.5244C6.47541 35.5191 6.40067 35.5128 6.32626 35.5048L6.21449 35.4925C6.17712 35.4886 6.13975 35.4862 6.10271 35.4829C5.95357 35.4696 5.80443 35.455 5.65496 35.4381C5.58022 35.4305 5.50581 35.4189 5.43108 35.4129C5.35634 35.4059 5.2816 35.3983 5.20687 35.39C4.60831 35.3127 4.0081 35.2569 3.39268 35.1228H3.39235C3.3692 35.1178 3.35465 35.0949 3.35961 35.0717C3.36292 35.0561 3.37449 35.0445 3.38838 35.0399L3.38772 35.0395Z" fill="#6C9CA3"/>
<path d="M31.2923 45.5571C31.4543 45.5116 31.6087 45.495 31.7615 45.485C31.914 45.4754 32.0638 45.4771 32.2113 45.487C32.3587 45.497 32.5042 45.5146 32.6481 45.5395C32.7923 45.5637 32.9338 45.5982 33.0704 45.657C33.3439 45.7715 33.6028 45.9633 33.8849 46.0456C34.0254 46.0897 34.1699 46.113 34.3168 46.1252C34.4633 46.1382 34.6137 46.1312 34.7642 46.1209C34.9147 46.111 35.0658 46.0957 35.2139 46.0944C35.251 46.094 35.288 46.0937 35.3247 46.0947C35.3614 46.0954 35.3985 46.096 35.4352 46.098L35.6544 46.1116C35.8006 46.1213 35.9468 46.1279 36.0923 46.1405C36.2374 46.1541 36.382 46.171 36.5245 46.1999C36.6673 46.2285 36.8092 46.2623 36.9504 46.3028C37.0209 46.3234 37.0916 46.344 37.1621 46.3662C37.2322 46.3897 37.3029 46.4117 37.3727 46.4379C37.5129 46.4883 37.6531 46.5427 37.7924 46.6075C37.9316 46.6718 38.0708 46.7399 38.208 46.8298L38.2087 46.8305C38.2299 46.8444 38.2358 46.873 38.2219 46.8942C38.2163 46.9032 38.2077 46.9091 38.1985 46.9125C37.8909 47.019 37.5877 47.0635 37.2864 47.088C36.9855 47.1103 36.6865 47.1083 36.3919 47.0771C36.2447 47.0608 36.0989 47.0349 35.9547 47.0004C35.8105 46.9652 35.667 46.9267 35.5238 46.8856L35.3092 46.8248C35.2378 46.8039 35.1673 46.7794 35.0969 46.7522C34.9563 46.6987 34.8184 46.633 34.6805 46.568C34.5426 46.5033 34.4041 46.4435 34.2632 46.399C34.122 46.3546 33.9785 46.323 33.8317 46.3074C33.6848 46.2915 33.533 46.2991 33.3803 46.3118C33.2275 46.323 33.0727 46.341 32.9232 46.334C32.7734 46.3293 32.6279 46.3028 32.4861 46.2613C32.3439 46.2208 32.203 46.1744 32.0648 46.1176C31.9265 46.0602 31.7906 45.9951 31.6577 45.9175C31.5254 45.8382 31.3944 45.7522 31.2714 45.6377C31.2522 45.6198 31.2513 45.5899 31.2691 45.5707C31.2754 45.564 31.2827 45.5597 31.2909 45.5574H31.2913L31.2923 45.5571Z" fill="#6C9CA3"/>
<path d="M4.22838 37.3837C4.36528 37.3426 4.50318 37.3123 4.64174 37.2838C4.71086 37.2699 4.7803 37.2566 4.84975 37.245C4.9192 37.2324 4.98864 37.2261 5.05809 37.2164C5.12753 37.2078 5.19731 37.2012 5.26675 37.1935L5.47575 37.175C5.54553 37.168 5.61498 37.1677 5.68475 37.1643C5.75453 37.1613 5.8243 37.1603 5.89375 37.1587C5.96353 37.1577 6.0333 37.157 6.10308 37.157C6.17286 37.1567 6.24263 37.1574 6.31208 37.161C6.4513 37.167 6.59019 37.1756 6.72908 37.1852C6.79853 37.1912 6.86797 37.1949 6.93709 37.2028C7.0062 37.2108 7.07499 37.2204 7.14377 37.231C7.28134 37.2523 7.41825 37.2782 7.55416 37.3094C7.69008 37.3419 7.82434 37.3824 7.95794 37.4245C8.09154 37.468 8.22514 37.5082 8.35742 37.555C8.48969 37.6021 8.62164 37.6475 8.75425 37.6887C8.88686 37.7292 9.01979 37.7674 9.15273 37.8042C9.41861 37.8775 9.69011 37.9247 9.96062 37.9778C10.0962 38.0023 10.2331 38.0229 10.3707 38.0405L10.784 38.0956C10.9223 38.1132 11.0612 38.1294 11.1994 38.1487C11.3376 38.1686 11.4745 38.1922 11.6114 38.2184C11.6799 38.2313 11.7483 38.2446 11.8161 38.2592C11.8843 38.2731 11.9521 38.2884 12.0198 38.304L12.4226 38.4095L12.8257 38.5164C12.9587 38.5559 13.0923 38.5944 13.2246 38.6365C13.3572 38.6777 13.4901 38.7189 13.6211 38.765C13.7514 38.8124 13.881 38.8626 14.0096 38.9147C14.1383 38.9664 14.2662 39.0205 14.3936 39.076C14.5196 39.134 14.6449 39.1941 14.7696 39.2555C14.8946 39.3156 15.0182 39.3793 15.1423 39.442C15.2041 39.4732 15.2643 39.5087 15.3255 39.5419C15.3863 39.5754 15.4468 39.6096 15.5073 39.6445C15.7491 39.7829 15.9882 39.9259 16.219 40.0786C16.4508 40.2316 16.6806 40.3892 16.9029 40.5668C16.9214 40.5817 16.9244 40.6086 16.9098 40.6272C16.8999 40.6398 16.8843 40.6451 16.8698 40.6428C16.5897 40.5996 16.3179 40.5366 16.0474 40.4689C15.7765 40.3995 15.5116 40.3261 15.2501 40.2472C15.1184 40.209 14.9895 40.1652 14.8588 40.1254C14.7286 40.0852 14.5979 40.0457 14.4693 40.0029C14.34 39.9614 14.211 39.9183 14.083 39.8735C13.9537 39.8316 13.8254 39.7888 13.6978 39.7434C13.5701 39.6982 13.4432 39.6511 13.3172 39.6013C13.1902 39.5549 13.0638 39.5061 12.9382 39.456C12.8119 39.4068 12.6869 39.3544 12.5612 39.303L12.1822 39.1549L11.8029 39.0063C11.7391 38.983 11.6756 38.9591 11.6124 38.9339C11.5489 38.9097 11.4861 38.8835 11.4229 38.8576C11.3598 38.832 11.2973 38.8041 11.2344 38.7776C11.1716 38.75 11.1094 38.7208 11.0463 38.6943C10.92 38.6422 10.7943 38.5871 10.6676 38.5333L10.4775 38.454L10.3823 38.4145C10.3502 38.4019 10.3181 38.3906 10.286 38.3787C10.1574 38.3319 10.0277 38.2881 9.89712 38.2479C9.7665 38.2078 9.63522 38.1696 9.50162 38.1417C9.36868 38.1108 9.23475 38.0853 9.09982 38.0641C9.03236 38.0538 8.9649 38.0431 8.89678 38.0365C8.82832 38.0309 8.7602 38.0246 8.69175 38.0206C8.55484 38.0119 8.4176 38.007 8.28003 38.0043C8.21158 38.0017 8.14247 38.0033 8.07368 38.0033H7.86766C7.79887 38.0043 7.73108 38.002 7.66263 38.001C7.59451 37.9987 7.52671 37.9954 7.45892 37.994C7.32301 37.9904 7.18808 37.9817 7.05382 37.9678C6.98669 37.9612 6.91956 37.9532 6.85276 37.9439L6.65203 37.9194C6.5181 37.9021 6.3845 37.8838 6.2509 37.8626L6.1507 37.847L6.05017 37.8331C5.98337 37.8238 5.91624 37.8135 5.84944 37.8029C5.71551 37.7826 5.58158 37.7551 5.44731 37.7338L5.24559 37.699C5.17846 37.6857 5.111 37.6738 5.04354 37.6595L4.84115 37.6164C4.77369 37.6031 4.7059 37.5888 4.63811 37.5735C4.50252 37.5423 4.36628 37.5092 4.22937 37.4653H4.22805C4.20523 37.4577 4.19299 37.4335 4.19994 37.4106C4.20424 37.3966 4.21548 37.3864 4.22871 37.3824L4.22838 37.3837Z" fill="#6C9CA3"/>
<path d="M32.8059 48.3204C32.9328 48.3383 33.0588 48.3615 33.1855 48.3811L33.5635 48.4482L34.3181 48.5879L35.0711 48.7362L35.4474 48.8132C35.5724 48.8414 35.6981 48.866 35.8228 48.8959C35.8406 48.9002 35.8519 48.9181 35.8476 48.936C35.8459 48.943 35.8423 48.949 35.8373 48.9533L35.8099 48.9775C35.7341 49.0446 35.6611 49.0947 35.5883 49.1395C35.5156 49.1849 35.4441 49.2211 35.3734 49.255C35.2315 49.32 35.0926 49.3651 34.956 49.394C34.6829 49.4528 34.419 49.4501 34.1637 49.4026C33.9087 49.3542 33.6627 49.2593 33.4302 49.1046C33.3138 49.0276 33.2014 48.934 33.0932 48.8212C33.0664 48.7913 33.0397 48.7635 33.0132 48.7323C32.9871 48.7001 32.9606 48.6699 32.9355 48.6344C32.8842 48.566 32.8346 48.492 32.7887 48.4014L32.7721 48.3685C32.7639 48.3523 32.7705 48.332 32.7867 48.3237C32.793 48.3204 32.7999 48.3194 32.8065 48.3204H32.8059Z" fill="#6C9CA3"/>
<path d="M5.20025 39.7801C5.32261 39.7449 5.44529 39.7207 5.56798 39.6981C5.69067 39.6759 5.81369 39.6579 5.93671 39.647C6.18241 39.6241 6.42878 39.6098 6.67349 39.6158C6.79618 39.6174 6.91853 39.6218 7.04089 39.6281C7.16292 39.637 7.28461 39.6486 7.40598 39.6616C7.52734 39.6759 7.64937 39.6875 7.76908 39.7124C7.88912 39.7356 8.00817 39.7638 8.12656 39.797C8.18575 39.8133 8.24428 39.8318 8.30315 39.8498C8.36135 39.8707 8.41955 39.8903 8.47742 39.9125C8.5935 39.9553 8.70858 40.0008 8.82366 40.0446C8.93907 40.0877 9.05283 40.1362 9.16791 40.1767C9.28299 40.2188 9.39874 40.2557 9.51514 40.2885C9.74729 40.3585 9.9834 40.4106 10.2222 40.4525C10.4599 40.4996 10.703 40.5268 10.9467 40.5553L11.3121 40.6015C11.4338 40.6184 11.5562 40.6333 11.6759 40.6579C11.9163 40.704 12.1537 40.7608 12.3899 40.8235C12.6253 40.8875 12.8624 40.9473 13.0959 41.0193C13.2123 41.0561 13.3284 41.0936 13.4434 41.1341C13.5585 41.175 13.6739 41.2148 13.786 41.2626C14.0112 41.3565 14.2345 41.4557 14.4531 41.5643C14.6713 41.6741 14.8869 41.7896 15.0996 41.9107C15.3105 42.0359 15.5182 42.1666 15.7219 42.305C15.924 42.4447 16.1227 42.5898 16.3139 42.7537C16.3321 42.7693 16.334 42.7965 16.3188 42.8148C16.3092 42.8261 16.2947 42.8314 16.2808 42.8297C16.0311 42.7995 15.7897 42.7487 15.5503 42.695C15.3119 42.6419 15.0777 42.5811 14.8466 42.5148C14.6138 42.4527 14.3833 42.386 14.1558 42.313C13.9269 42.2439 13.6994 42.1726 13.4752 42.0919C13.2507 42.0136 13.0278 41.931 12.8075 41.8394L12.1458 41.5679C12.036 41.5208 11.9239 41.4806 11.8131 41.4358C11.7576 41.4139 11.7023 41.3917 11.6471 41.3678C11.5919 41.3449 11.537 41.3203 11.4821 41.2958C11.4547 41.2838 11.4272 41.2712 11.4001 41.2583L11.3177 41.2218L11.1534 41.1467L10.825 40.9921C10.6051 40.8912 10.3816 40.7996 10.1537 40.7219C10.0396 40.6844 9.92388 40.6529 9.8078 40.6234C9.6914 40.5942 9.57466 40.568 9.45594 40.5484C9.33723 40.5304 9.21751 40.5168 9.09714 40.5082C9.03696 40.5039 8.97677 40.4996 8.91625 40.4973C8.88616 40.4959 8.85607 40.4939 8.82564 40.4933L8.73437 40.4926C8.61301 40.4913 8.49131 40.492 8.37094 40.49C8.25024 40.4876 8.13019 40.4837 8.01048 40.479C7.53329 40.4538 7.07065 40.3486 6.60239 40.2583C6.36925 40.2049 6.13545 40.1548 5.90132 40.0894C5.78426 40.0549 5.66686 40.0247 5.54946 39.9878C5.43207 39.9507 5.31401 39.9118 5.19628 39.8624H5.19529C5.17313 39.8528 5.16255 39.8269 5.17181 39.8046C5.1771 39.792 5.18768 39.7831 5.19992 39.7794L5.20025 39.7801Z" fill="#6C9CA3"/>
<path d="M6.32417 42.2509H6.32847C6.75143 42.1384 7.17207 42.1172 7.58808 42.1315C7.79576 42.1404 8.0031 42.1574 8.2078 42.1889C8.31032 42.2041 8.4125 42.2201 8.51369 42.2423C8.61456 42.2655 8.71443 42.2951 8.81297 42.3289C8.91152 42.3631 9.0094 42.4003 9.10597 42.4428C9.2022 42.4856 9.29777 42.531 9.39367 42.5745C9.48891 42.6197 9.58514 42.6601 9.68104 42.7013C9.77694 42.7425 9.87351 42.7786 9.97139 42.8105C10.1675 42.8722 10.3659 42.9233 10.5683 42.9605C10.771 42.9963 10.9764 43.0239 11.185 43.0441C11.394 43.063 11.6014 43.0883 11.8071 43.1225C12.0134 43.1543 12.2125 43.2097 12.4139 43.2592C12.8154 43.3607 13.2171 43.4679 13.5991 43.6272C13.7912 43.7039 13.9784 43.7932 14.1629 43.8878C14.2559 43.9339 14.3471 43.983 14.4387 44.0321C14.529 44.0842 14.6196 44.135 14.7082 44.1898C14.7975 44.2432 14.8858 44.2993 14.9738 44.3557C15.0611 44.4135 15.1471 44.4742 15.2321 44.5359C15.402 44.661 15.5694 44.7895 15.7261 44.9392H15.7264C15.744 44.9564 15.7446 44.984 15.7281 45.0016C15.7188 45.0115 15.7056 45.0158 15.693 45.0152C15.2608 44.9803 14.859 44.889 14.4592 44.7958C14.3594 44.7722 14.2611 44.745 14.1626 44.7188C14.0644 44.6919 13.9655 44.667 13.8686 44.6378C13.7711 44.6103 13.6738 44.5811 13.5776 44.5502C13.4814 44.519 13.3845 44.4901 13.2892 44.4569C13.0978 44.3929 12.9113 44.3162 12.7241 44.2409C12.5376 44.1639 12.3534 44.0789 12.1662 44.0019C12.0729 43.9624 11.9794 43.9239 11.8864 43.8838C11.8398 43.8642 11.7935 43.843 11.7472 43.8221C11.7006 43.8021 11.6543 43.7806 11.6083 43.7587C11.4235 43.6734 11.2429 43.5708 11.0584 43.4796C10.692 43.2887 10.3094 43.139 9.9079 43.069C9.70717 43.0338 9.50148 43.0199 9.2938 43.0202C9.19029 43.0189 9.08679 43.0192 8.98394 43.0169L8.82984 43.0146C8.77891 43.0119 8.72765 43.0109 8.67706 43.0073C8.57553 43.0007 8.47533 42.9884 8.3758 42.9724C8.27593 42.9585 8.17771 42.9376 8.07916 42.9164C7.88273 42.8709 7.6863 42.8261 7.49086 42.7707C7.44192 42.7567 7.3933 42.7425 7.34436 42.7272C7.29542 42.7132 7.24648 42.6986 7.19787 42.6834L7.05137 42.6359C7.00276 42.6187 6.95381 42.6024 6.9052 42.5841C6.71042 42.5118 6.51498 42.4391 6.3212 42.3329H6.3255C6.30268 42.3236 6.29177 42.2974 6.30102 42.2745C6.30565 42.2629 6.31491 42.2546 6.3255 42.2499L6.32417 42.2509Z" fill="#6C9CA3"/>
<path d="M7.65134 44.8259C7.99096 44.7233 8.32133 44.7091 8.64607 44.724C8.80811 44.7343 8.96949 44.7502 9.12789 44.7798C9.28662 44.8073 9.44337 44.8451 9.59317 44.9115C9.74364 44.9749 9.88815 45.0589 10.0323 45.1418C10.1765 45.2251 10.3217 45.3005 10.4715 45.3576C10.5466 45.3861 10.6226 45.4097 10.7 45.4296C10.7771 45.4498 10.8548 45.4684 10.9338 45.4827C11.0125 45.4976 11.0929 45.5076 11.1739 45.5159C11.2546 45.5245 11.3363 45.5308 11.4183 45.5364C11.5826 45.5471 11.748 45.5557 11.9087 45.5799C11.949 45.5859 11.9894 45.5915 12.0291 45.5992C12.0691 45.6058 12.1091 45.6134 12.1484 45.6217C12.2275 45.6387 12.3055 45.6586 12.3842 45.6768C12.699 45.7498 13.0135 45.8272 13.3105 45.9526C13.6078 46.0767 13.8932 46.2311 14.168 46.408C14.4418 46.5868 14.7064 46.7856 14.9435 47.0405C14.9603 47.0588 14.9597 47.0873 14.9415 47.1046C14.9332 47.1125 14.9226 47.1165 14.912 47.1169H14.9111C14.7361 47.1222 14.5701 47.1082 14.4067 47.09C14.2431 47.0717 14.0827 47.0478 13.9253 47.017C13.6094 46.9576 13.3026 46.8809 13.0036 46.7843C12.8548 46.7342 12.708 46.6784 12.5638 46.6154L12.1329 46.4196C11.9894 46.3532 11.8442 46.2918 11.7037 46.2151C11.6332 46.1776 11.5638 46.1365 11.494 46.0953L11.285 45.9705C11.0069 45.8006 10.7139 45.6705 10.4011 45.6148C10.0892 45.554 9.74992 45.6055 9.43246 45.5846C9.27373 45.5736 9.11962 45.5447 8.9685 45.5013C8.9308 45.4903 8.89277 45.48 8.8554 45.4684C8.8177 45.4578 8.78 45.4462 8.7423 45.4346C8.66723 45.4107 8.59217 45.3858 8.51776 45.3576C8.36895 45.3015 8.22047 45.2421 8.07397 45.1677C7.92714 45.0941 7.78064 45.0161 7.63811 44.9072L7.63712 44.9062C7.61695 44.8906 7.61298 44.8617 7.62852 44.8415C7.63481 44.8335 7.64308 44.8279 7.652 44.8252L7.65134 44.8259Z" fill="#6C9CA3"/>
<path d="M9.40338 47.5911C9.58295 47.6252 9.76119 47.6657 9.93943 47.7056C10.117 47.748 10.2946 47.7925 10.4715 47.8383C10.6488 47.8831 10.824 47.9352 10.9996 47.9863C11.1749 48.0378 11.3498 48.0909 11.5244 48.1453C11.6981 48.202 11.8713 48.2605 12.0443 48.3202C12.2169 48.3806 12.3899 48.4397 12.5602 48.5057C12.7311 48.5708 12.9015 48.6368 13.0711 48.7045C13.2398 48.7749 13.4087 48.8442 13.5757 48.9192C13.5939 48.9275 13.6022 48.9491 13.5939 48.9674C13.5896 48.9766 13.582 48.9836 13.5731 48.9869L13.5456 48.9966C13.4322 49.0367 13.3257 49.0609 13.2212 49.0805C13.1164 49.1014 13.0152 49.114 12.915 49.1243C12.8151 49.1343 12.7173 49.1396 12.6214 49.1409C12.5251 49.1426 12.4305 49.1409 12.3373 49.1353C11.9646 49.1144 11.6131 49.043 11.2735 48.9358C10.9338 48.8273 10.6068 48.6816 10.2913 48.4838C10.2123 48.4344 10.1339 48.3819 10.0565 48.3245C9.97912 48.2674 9.90207 48.2077 9.82634 48.1413C9.78897 48.1068 9.75061 48.0753 9.71324 48.0394C9.67587 48.0029 9.63817 47.9684 9.60146 47.9286C9.52739 47.8522 9.45398 47.7709 9.3842 47.6724L9.36733 47.6485C9.35576 47.6322 9.3594 47.6093 9.37593 47.5977C9.3842 47.5917 9.39445 47.5897 9.40371 47.5917L9.40338 47.5911Z" fill="#6C9CA3"/>
</g>
</svg>
